<?xml version="1.0" encoding="UTF-8"?>
<svg width="24px" height="21px" viewBox="0 0 24 21" version="1.1" xmlns="http://www.w3.org/2000/svg" xmlns:xlink="http://www.w3.org/1999/xlink">
    <g id="basket" stroke="none" stroke-width="1" fill="none" fill-rule="evenodd">
        <g id="cart" fill="currentColor" fill-rule="nonzero">
            <path d="M23.6247656,3.31098409 C23.3028281,2.90539773 22.8243281,2.67282273 22.3120781,2.67282273 L4.01892187,2.67282273 L3.8555625,1.48078636 C3.739875,0.636681818 3.021375,9.54545455e-05 2.18423437,9.54545455e-05 L0.75,9.54545455e-05 C0.3358125,9.54545455e-05 -2.66453526e-15,0.342013636 -2.66453526e-15,0.763731818 C-2.66453526e-15,1.18545 0.3358125,1.52736818 0.75,1.52736818 L2.18423437,1.52736818 C2.27723437,1.52736818 2.35710937,1.5981 2.36990625,1.69188409 L4.39439062,16.4648591 C4.51007812,17.3090114 5.22857812,17.94555 6.06571875,17.94555 L6.87895312,17.94555 C6.79570312,18.1845682 6.74995312,18.4414841 6.74995312,18.7091864 C6.74995312,19.9723841 7.7593125,21.0000955 8.99995312,21.0000955 C10.2405937,21.0000955 11.2499531,19.9723841 11.2499531,18.7091864 C11.2499531,18.4414841 11.2042031,18.1845682 11.1209531,17.94555 L15.1289531,17.94555 C15.0457031,18.1845682 14.9999531,18.4414841 14.9999531,18.7091864 C14.9999531,19.9723841 16.0093125,21.0000955 17.2499531,21.0000955 C18.4905937,21.0000955 19.4999531,19.9723841 19.4999531,18.7091864 C19.4999531,18.4414841 19.4542031,18.1845682 19.3709531,17.94555 L21,17.94555 C21.4141875,17.94555 21.75,17.6036318 21.75,17.1819136 C21.75,16.7601955 21.4141875,16.4182773 21,16.4182773 L6.06576562,16.4182773 C5.97276562,16.4182773 5.89289062,16.3475455 5.88009375,16.2537614 L5.69334375,14.8910045 L20.46375,14.8910045 C21.2539687,14.8910045 21.9479531,14.3199477 22.1139844,13.5327818 L23.9622187,4.75110682 C24.0696094,4.24133182 23.9466094,3.71642727 23.6247656,3.31098409 L23.6247656,3.31098409 Z M9.75,18.7091864 C9.75,19.1302364 9.41353125,19.4728227 9,19.4728227 C8.58646875,19.4728227 8.25,19.1302364 8.25,18.7091864 C8.25,18.2881364 8.58646875,17.94555 9,17.94555 C9.41353125,17.94555 9.75,18.2880886 9.75,18.7091864 Z M18,18.7091864 C18,19.1302364 17.6635313,19.4728227 17.25,19.4728227 C16.8364688,19.4728227 16.5,19.1302364 16.5,18.7091864 C16.5,18.2881364 16.8364688,17.94555 17.25,17.94555 C17.6635313,17.94555 18,18.2880886 18,18.7091864 Z M22.4955469,4.43095227 L20.6473594,13.2124364 C20.6288906,13.3000636 20.5516406,13.3636841 20.46375,13.3636841 L5.484,13.3636841 L4.22821875,4.20004773 L22.3120313,4.20004773 C22.3862344,4.20004773 22.4324531,4.23861136 22.4581406,4.27097045 C22.4837813,4.30328182 22.5110625,4.35726136 22.4955469,4.43095227 L22.4955469,4.43095227 Z" id="Shape"></path>
        </g>
    </g>
</svg>