<?xml version="1.0" encoding="UTF-8"?>
<svg width="52px" height="31px" viewBox="0 0 52 31" version="1.1" xmlns="http://www.w3.org/2000/svg" xmlns:xlink="http://www.w3.org/1999/xlink">
    <g id="card-visa" stroke="none" stroke-width="1" fill="none" fill-rule="evenodd">
        <g id="Visa-dark">
            <rect id="Rectangle" fill="#26337A" x="0" y="0" width="52" height="31" rx="4"></rect>
            <polyline id="Fill-3" fill="#FFFFFE" points="21.5747952 20.432493 23.1736586 10.5775493 25.7293843 10.5775493 24.1306671 20.432493 21.5747952 20.432493"></polyline>
            <path d="M33.4010929,10.8194366 C32.8957655,10.6216479 32.1010114,10.4059577 31.1109674,10.4059577 C28.5841843,10.4059577 26.8055255,11.7433239 26.7907618,13.658338 C26.7746826,15.0748779 28.0600004,15.8648685 29.0289952,16.3356901 C30.0248863,16.8183005 30.3594811,17.1271362 30.3555344,17.558662 C30.3486641,18.2186854 29.5606341,18.5211174 28.8258118,18.5211174 C27.802586,18.5211174 27.2589607,18.37223 26.4184538,18.0043052 L26.089706,17.8474131 L25.7323078,20.0533615 C26.3282638,20.3278498 27.4330553,20.5660986 28.5796529,20.578615 C31.2650359,20.578615 33.0099283,19.2574038 33.0303928,17.2124225 C33.0396018,16.0891455 32.358572,15.2377371 30.8836651,14.5347793 C29.9905351,14.077784 29.4423784,13.775061 29.448664,13.3125352 C29.4492487,12.9029859 29.9117467,12.4644742 30.9127539,12.4644742 C31.7487294,12.4510845 32.3538944,12.6429061 32.8254553,12.843169 L33.0549502,12.9558169 L33.4010929,10.8194366" id="Fill-4" fill="#FFFFFE"></path>
            <path d="M36.8041958,16.9385164 C37.0160035,16.3720751 37.8223054,14.1838826 37.8223054,14.1838826 C37.8073956,14.2099343 38.0329438,13.6130751 38.1620164,13.2436948 L38.334503,14.0936479 C38.334503,14.0936479 38.8249206,16.4458638 38.9259276,16.9385164 L36.8041958,16.9385164 L36.8041958,16.9385164 Z M39.957193,10.5875915 L37.9820748,10.5875915 C37.3694549,10.5875915 36.9109036,10.7619484 36.6425261,11.404507 L32.8470892,20.4359859 L35.531449,20.4359859 C35.531449,20.4359859 35.9693897,19.2210188 36.0687888,18.9543897 C36.3615775,18.9543897 38.9699263,18.9594836 39.3422343,18.9594836 C39.41883,19.3033944 39.6534411,20.4359859 39.6534411,20.4359859 L42.0255709,20.4359859 L39.957193,10.5875915 L39.957193,10.5875915 Z" id="Fill-5" fill="#FFFFFE"></path>
            <path d="M19.4306986,10.5858451 L16.9292039,17.3045493 L16.6612649,15.9388028 C16.1951124,14.3652254 14.7440321,12.6596432 13.1209036,11.8050329 L15.4094212,20.4239061 L18.1142455,20.4223052 L22.1390312,10.5858451 L19.4306986,10.5858451" id="Fill-6" fill="#FFFFFE"></path>
            <path d="M14.607066,10.5791502 L10.4856586,10.5791502 L10.451746,10.7833427 C13.6586818,11.5996761 15.7805598,13.5701408 16.6612649,15.9388028 L15.76565,11.4106197 C15.6111429,10.786108 15.1620929,10.6009812 14.607066,10.5791502" id="Fill-7" fill="#EC982D"></path>
        </g>
    </g>
</svg>