<?xml version="1.0" encoding="UTF-8"?>
<svg width="52px" height="31px" viewBox="0 0 52 31" version="1.1" xmlns="http://www.w3.org/2000/svg" xmlns:xlink="http://www.w3.org/1999/xlink">
    <g id="card-mastercard" stroke="none" stroke-width="1" fill="none" fill-rule="evenodd">
        <g id="MasterCard-dark">
            <rect id="Rectangle" fill="#000066" x="0" y="0" width="52" height="31" rx="4"></rect>
            <path d="M29.1868829,15.7507911 C29.1868829,21.3195565 24.6438245,25.8333333 19.039292,25.8333333 C13.4345991,25.8333333 8.89122,21.3195565 8.89122,15.7507911 C8.89122,10.1821851 13.4345991,5.66793021 19.039292,5.66793021 C24.6438245,5.66793021 29.1868829,10.1821851 29.1868829,15.7507911" id="Fill-333" fill="#CC0000"></path>
            <path d="M32.6633352,5.66793021 C30.0406808,5.66793021 27.6518427,6.65631476 25.8505919,8.2777562 C25.4841516,8.60822687 25.1420872,8.96514794 24.826323,9.34517327 L26.8766249,9.34517327 C27.156627,9.68392961 27.4146587,10.040054 27.650239,10.4130684 L24.0525486,10.4130684 C23.8373351,10.7558082 23.6416864,11.1119326 23.4678477,11.4809635 L28.2346191,11.4809635 C28.3975527,11.8265714 28.5409215,12.1825364 28.6644047,12.5483805 L23.0380621,12.5483805 C22.9209937,12.8960599 22.8222071,13.2523436 22.7433062,13.6156383 L28.9588399,13.6156383 C29.1076612,14.3039861 29.1868829,15.0181469 29.1868829,15.7507911 C29.1868829,16.8701529 29.0032618,17.9476084 28.6644047,18.953839 L23.0380621,18.953839 C23.1615453,19.3193645 23.3049141,19.6758075 23.467527,20.0218935 L28.2346191,20.0218935 C28.0604597,20.3899683 27.8657732,20.7464114 27.6492768,21.0896292 L24.0525486,21.0896292 C24.2871666,21.4615282 24.5456795,21.8181306 24.826323,22.1564089 L26.8759834,22.1564089 C26.5608608,22.536753 26.2184756,22.893674 25.8509127,23.2241447 C27.652003,24.8455861 30.0406808,25.8333333 32.6633352,25.8333333 C38.2677074,25.8333333 42.8109261,21.3195565 42.8109261,15.7507911 C42.8109261,10.1826631 38.2677074,5.66793021 32.6633352,5.66793021" id="Fill-334" fill="#FF9900"></path>
            <path d="M16.6695376,16.854697 C16.5539124,16.8416311 16.5029155,16.8374883 16.4235334,16.8374883 C15.7990614,16.8374883 15.4832972,17.0503662 15.4832972,17.4708639 C15.4832972,17.729791 15.6374106,17.894389 15.8779623,17.894389 C16.3268317,17.894389 16.6502934,17.4699078 16.6695376,16.854697 L16.6695376,16.854697 Z M17.4708953,18.7079778 L16.5577612,18.7079778 L16.5787694,18.2769637 C16.300371,18.6173135 15.9287989,18.77984 15.4241215,18.77984 C14.8272327,18.77984 14.4178138,18.3167987 14.4178138,17.6439068 C14.4178138,16.630984 15.1296863,16.0403115 16.351849,16.0403115 C16.4770963,16.0403115 16.6371433,16.0517839 16.8010391,16.0723388 C16.8350371,15.9349879 16.8440177,15.8766695 16.8440177,15.8025765 C16.8440177,15.5272374 16.6522178,15.4239853 16.1375977,15.4239853 C15.5986017,15.4185677 15.1540622,15.5519351 14.9714033,15.6115282 C14.9829498,15.5423747 15.1242338,14.6760444 15.1242338,14.6760444 C15.6730123,14.5157486 16.0351227,14.4558369 16.4426172,14.4558369 C17.388787,14.4558369 17.8899362,14.8777685 17.8888137,15.6754234 C17.8907381,15.8894167 17.8549761,16.1524867 17.7996492,16.4995287 C17.70407,17.101833 17.4987993,18.3936004 17.4708953,18.7079778 L17.4708953,18.7079778 Z" id="Fill-336" fill="#000066"></path>
            <polyline id="Fill-337" fill="#000066" points="13.9567565 18.7079778 12.8548696 18.7079778 13.4863979 14.7767471 12.0769256 18.7079778 11.3262441 18.7079778 11.2333912 14.798736 10.5701101 18.7079778 9.53894539 18.7079778 10.4002806 13.5936494 11.9845538 13.5936494 12.0802933 16.4563476 13.0468298 13.5936494 14.8087904 13.5936494 13.9567565 18.7079778"></polyline>
            <path d="M34.0245368,16.854697 C33.9089116,16.8416311 33.8585561,16.8374883 33.7793345,16.8374883 C33.1543813,16.8374883 32.8389379,17.0503662 32.8389379,17.4708639 C32.8389379,17.729791 32.9924099,17.894389 33.233603,17.894389 C33.6821516,17.894389 34.0057738,17.4699078 34.0245368,16.854697 L34.0245368,16.854697 Z M34.8263756,18.7079778 L33.9135623,18.7079778 L33.9342497,18.2769637 C33.6558513,18.6173135 33.2844396,18.77984 32.7800829,18.77984 C32.1823923,18.77984 31.7734545,18.3167987 31.7734545,17.6439068 C31.7734545,16.630984 32.4856477,16.0403115 33.7074897,16.0403115 C33.8325766,16.0403115 33.9923029,16.0517839 34.1563591,16.0723388 C34.1905174,15.9349879 34.1993376,15.8766695 34.1993376,15.8025765 C34.1993376,15.5272374 34.0075378,15.4239853 33.4929176,15.4239853 C32.9539216,15.4185677 32.5095425,15.5519351 32.3262422,15.6115282 C32.3384301,15.5423747 32.4800349,14.6760444 32.4800349,14.6760444 C33.0284926,14.5157486 33.3909238,14.4558369 33.7977768,14.4558369 C34.744588,14.4558369 35.2450958,14.8777685 35.2441336,15.6754234 C35.246058,15.8894167 35.2106167,16.1524867 35.1549691,16.4995287 C35.0597107,17.101833 34.8539588,18.3936004 34.8263756,18.7079778 L34.8263756,18.7079778 Z" id="Fill-338" fill="#000066"></path>
            <path d="M22.366923,18.6447199 C22.0652713,18.739049 21.8303325,18.77984 21.5753478,18.77984 C21.0122966,18.77984 20.7048716,18.4582924 20.7048716,17.8660265 C20.6970135,17.6821484 20.7858573,17.1985522 20.8557776,16.7574997 C20.919604,16.3688701 21.3336736,13.9191805 21.3336736,13.9191805 L22.4285043,13.9191805 L22.3006912,14.5487319 L22.9622082,14.5487319 L22.8129058,15.5484296 L22.1491436,15.5484296 C22.021972,16.3392329 21.8405961,17.32459 21.8385113,17.4552486 C21.8385113,17.6697199 21.9536553,17.7634117 22.2158566,17.7634117 C22.3414246,17.7634117 22.4386074,17.7506645 22.5128577,17.7242141 L22.366923,18.6447199" id="Fill-339" fill="#000066"></path>
            <path d="M25.7243825,18.6110992 C25.3481597,18.7253458 24.9855682,18.7811147 24.600846,18.77984 C23.3748344,18.7782466 22.7357689,18.142481 22.7357689,16.9243285 C22.7357689,15.5026991 23.5486731,14.4558369 24.6524844,14.4558369 C25.5551945,14.4558369 26.1320374,15.0418885 26.1320374,15.9606416 C26.1320374,16.2660959 26.0925869,16.5637426 25.9968473,16.9837622 L23.8161665,16.9837622 C23.7425577,17.5871819 24.1309684,17.8384607 24.7684303,17.8384607 C25.159888,17.8384607 25.5136593,17.7581535 25.9067207,17.5769841 L25.7243825,18.6110992 L25.7243825,18.6110992 Z M25.108891,16.1454757 C25.1151454,16.0586355 25.2248369,15.4029524 24.5989216,15.4029524 C24.2506028,15.4029524 24.0009102,15.6671377 23.8997181,16.1454757 L25.108891,16.1454757 L25.108891,16.1454757 Z" id="Fill-340" fill="#000066"></path>
            <path d="M18.1316105,15.863763 C18.1316105,16.3894249 18.3881989,16.7522415 18.9703338,17.0248719 C19.4163166,17.2334476 19.4857558,17.2951121 19.4857558,17.4839297 C19.4857558,17.7428568 19.2888242,17.8604496 18.853105,17.8604496 C18.5241907,17.8604496 18.2185298,17.8091422 17.8658811,17.6958516 C17.8658811,17.6958516 17.7213897,18.6130113 17.7144939,18.6568297 C17.964828,18.7106866 18.1880599,18.7608786 18.860963,18.77984 C20.0233086,18.77984 20.5602198,18.3400623 20.5602198,17.3896006 C20.5602198,16.8182082 20.335705,16.482798 19.7837191,16.2304038 C19.3220204,16.019916 19.2686179,15.9727514 19.2686179,15.7786756 C19.2686179,15.5538472 19.4519182,15.4389632 19.8077743,15.4389632 C20.0241104,15.4389632 20.3193475,15.4619081 20.5995099,15.501265 L20.7561892,14.5366221 C20.4710554,14.491529 20.0383831,14.4558369 19.7866058,14.4558369 C18.5543399,14.4558369 18.1276013,15.0952673 18.1316105,15.863763" id="Fill-341" fill="#000066"></path>
            <path d="M31.0824298,14.5656219 C31.3884115,14.5656219 31.6741869,14.6446545 32.0669275,14.8417578 L32.2473412,13.731797 C32.0853698,13.6686984 31.5175076,13.2988708 31.0364043,13.2988708 C30.299354,13.2988708 29.6755234,13.6628028 29.2375591,14.2620797 C28.5980124,14.0517512 28.3348489,14.4768697 28.0128305,14.9007135 L27.726574,14.9669988 C27.7482237,14.8275765 27.7679489,14.6891103 27.7616946,14.5487319 L26.7494533,14.5487319 C26.611537,15.8363566 26.3666554,17.1400745 26.1750159,18.4281772 L26.1248208,18.7079778 L27.2270284,18.7079778 C27.4109703,17.5202592 27.5115209,16.7600492 27.5727813,16.2450631 L27.9878131,16.0165698 C28.0501962,15.7869612 28.2437601,15.7098408 28.633133,15.7192418 C28.5822964,15.9904381 28.5547132,16.2761343 28.5547132,16.5717096 C28.5547132,17.9326305 29.29465,18.77984 30.4800885,18.77984 C30.7855891,18.77984 31.0479507,18.7400051 31.4541623,18.6300606 L31.6472451,17.4646496 C31.2819273,17.6429508 30.9828414,17.7269229 30.7116596,17.7269229 C30.0711507,17.7269229 29.6835418,17.2570299 29.6835418,16.4808859 C29.6835418,15.3545131 30.2595828,14.5656219 31.0824298,14.5656219" id="Fill-342" fill="#000066"></path>
            <path d="M40.4097396,13.5936494 L40.164858,15.071207 C39.8641685,14.6774785 39.5405463,14.3922603 39.1133266,14.3922603 C38.5574919,14.3922603 38.0515317,14.8110052 37.7202119,15.4276501 C37.2588338,15.3325242 36.7820605,15.1707944 36.7820605,15.1707944 L36.7817397,15.1747779 C36.8184639,14.830126 36.8340196,14.6204348 36.8303311,14.5487319 L35.8182502,14.5487319 C35.680815,15.8363566 35.4356127,17.1400745 35.2441336,18.4281772 L35.1934574,18.7079778 L36.2959858,18.7079778 C36.444807,17.748115 36.5585078,16.9501415 36.6423801,16.3182 C37.0192444,15.9797624 37.2078369,15.6854618 37.5877481,15.7045826 C37.4192016,16.1096243 37.3208961,16.5758524 37.3208961,17.0541904 C37.3208961,18.0935637 37.849789,18.77984 38.6509863,18.77984 C39.0547924,18.77984 39.3646229,18.6413738 39.6667558,18.3207822 L39.6147966,18.7076591 L40.6571871,18.7076591 L41.4963916,13.5936494 L40.4097396,13.5936494 L40.4097396,13.5936494 Z M39.0320202,17.747159 C38.6570803,17.747159 38.4672049,17.4708639 38.4672049,16.9271966 C38.4672049,16.1096243 38.8220988,15.5301055 39.3216443,15.5301055 C39.7002726,15.5301055 39.9055434,15.8162798 39.9055434,16.3446504 C39.9055434,17.1692337 39.5447159,17.747159 39.0320202,17.747159 L39.0320202,17.747159 Z" id="Fill-343" fill="#000066"></path>
            <polyline id="Fill-344" fill="#FFFFFF" points="14.2736432 18.4044355 13.172077 18.4044355 13.8034449 14.4732049 12.3942934 18.4044355 11.6432912 18.4044355 11.5505986 14.4959905 10.8871572 18.4044355 9.85599246 18.4044355 10.7173277 13.2905852 12.3016008 13.2905852 12.3458623 16.4563476 13.4148738 13.2905852 15.1258375 13.2905852 14.2736432 18.4044355"></polyline>
            <path d="M16.9865846,16.5517921 C16.8711198,16.5384076 16.8201229,16.5347427 16.7407409,16.5347427 C16.1162688,16.5347427 15.8003443,16.747302 15.8003443,17.1674809 C15.8003443,17.4260894 15.9546181,17.5916434 16.1953301,17.5916434 C16.6440391,17.5916434 16.9675009,17.1671623 16.9865846,16.5517921 L16.9865846,16.5517921 Z M17.787782,18.4044355 L16.875129,18.4044355 L16.8959768,17.9737402 C16.6175784,18.3139305 16.2460063,18.4766164 15.741329,18.4766164 C15.1442798,18.4766164 14.7350213,18.0129377 14.7350213,17.3402053 C14.7350213,16.327123 15.4470541,15.7372472 16.6692168,15.7372472 C16.7941433,15.7372472 16.9541903,15.7485604 17.1182466,15.7695932 C17.1522445,15.6319236 17.1612251,15.573446 17.1612251,15.4990343 C17.1612251,15.2238545 16.9694253,15.121399 16.4548051,15.121399 C15.9156487,15.1150255 15.4712696,15.2483928 15.2884504,15.3078266 C15.3001572,15.2389918 15.4412809,14.3726615 15.4412809,14.3726615 C15.9902197,14.2126844 16.3523301,14.1522946 16.7598246,14.1522946 C17.705834,14.1522946 18.2068229,14.5747043 18.2060211,15.3720405 C18.2077851,15.5857151 18.1723439,15.8500598 18.1168566,16.1961457 C18.0211171,16.797972 17.8158463,18.0905362 17.787782,18.4044355 L17.787782,18.4044355 Z" id="Fill-345" fill="#FFFFFF"></path>
            <path d="M32.5642279,13.4282547 L32.3838142,14.5380562 C31.9904321,14.3415902 31.7054586,14.2620797 31.3997976,14.2620797 C30.5772714,14.2620797 30.0002682,15.0519269 30.0002682,16.178459 C30.0002682,16.954603 30.3880374,17.4235399 31.0285462,17.4235399 C31.2998885,17.4235399 31.5996158,17.3402053 31.9641318,17.1612667 L31.7705679,18.3266777 C31.3649978,18.4364628 31.1024758,18.4766164 30.7971356,18.4766164 C29.6108952,18.4766164 28.872081,17.6292476 28.872081,16.2686453 C28.872081,14.4403809 29.8934632,13.1626353 31.3534513,13.1626353 C31.8345546,13.1626353 32.4027376,13.3651562 32.5642279,13.4282547" id="Fill-346" fill="#FFFFFF"></path>
            <path d="M34.3414235,16.5517921 C34.2266002,16.5384076 34.1754428,16.5347427 34.0962212,16.5347427 C33.4720698,16.5347427 33.155985,16.747302 33.155985,17.1674809 C33.155985,17.4260894 33.3100984,17.5916434 33.55065,17.5916434 C33.9991987,17.5916434 34.3229812,17.1671623 34.3414235,16.5517921 L34.3414235,16.5517921 Z M35.1432623,18.4044355 L34.2306094,18.4044355 L34.2512968,17.9737402 C33.9728984,18.3139305 33.6013263,18.4766164 33.09713,18.4766164 C32.4994394,18.4766164 32.0906619,18.0129377 32.0906619,17.3402053 C32.0906619,16.327123 32.8020533,15.7372472 34.0245368,15.7372472 C34.1494633,15.7372472 34.3091896,15.7485604 34.4730854,15.7695932 C34.5072437,15.6319236 34.5162243,15.573446 34.5162243,15.4990343 C34.5162243,15.2238545 34.3249056,15.121399 33.8099647,15.121399 C33.2712894,15.1150255 32.8270707,15.2483928 32.6439307,15.3078266 C32.6554772,15.2389918 32.7967612,14.3726615 32.7967612,14.3726615 C33.3457,14.2126844 33.7074897,14.1522946 34.1149842,14.1522946 C35.0609936,14.1522946 35.5624636,14.5747043 35.5611807,15.3720405 C35.5634258,15.5857151 35.5276638,15.8500598 35.4721766,16.1961457 C35.3767578,16.797972 35.171487,18.0905362 35.1432623,18.4044355 L35.1432623,18.4044355 Z" id="Fill-347" fill="#FFFFFF"></path>
            <path d="M22.6838097,18.341337 C22.3824787,18.4356661 22.1472192,18.4766164 21.8925552,18.4766164 C21.3293436,18.4766164 21.0217583,18.1549095 21.0217583,17.5632809 C21.0140606,17.3787655 21.1030647,16.895966 21.1731454,16.4544355 C21.2364907,16.0654871 21.6507206,13.6161163 21.6507206,13.6161163 L22.7458721,13.6161163 L22.6177382,14.2455084 L23.1799876,14.2455084 L23.0302041,15.2448874 L22.4661907,15.2448874 C22.3390191,16.0364873 22.1576431,17.021207 22.155398,17.1518657 C22.155398,17.3669743 22.2710231,17.4600288 22.5329037,17.4600288 C22.6584716,17.4600288 22.7554941,17.4477596 22.8300651,17.4206718 L22.6838097,18.341337" id="Fill-348" fill="#FFFFFF"></path>
            <path d="M26.0419107,18.3083537 C25.6655275,18.4229189 25.3021342,18.4769351 24.917893,18.4766164 C23.6917211,18.4758197 23.0531367,17.8392574 23.0531367,16.6212642 C23.0531367,15.1991568 23.8658805,14.1522946 24.96889,14.1522946 C25.8725623,14.1522946 26.4490844,14.7383463 26.4490844,15.6582147 C26.4490844,15.9630317 26.4089925,16.260519 26.3143755,16.680698 L24.1333739,16.680698 C24.0594444,17.2841177 24.4483362,17.5358745 25.0851566,17.5358745 C25.4769351,17.5358745 25.830546,17.4552486 26.2240885,17.2736012 L26.0419107,18.3083537 L26.0419107,18.3083537 Z M25.4262588,15.8419335 C25.4321925,15.7549339 25.5423651,15.0995695 24.9166101,15.0995695 C24.5679706,15.0995695 24.318278,15.3642328 24.2167652,15.8419335 L25.4262588,15.8419335 L25.4262588,15.8419335 Z" id="Fill-349" fill="#FFFFFF"></path>
            <path d="M18.4484972,15.5602208 C18.4484972,16.0868387 18.7054063,16.4488586 19.2877016,16.7218076 C19.7336844,16.930224 19.8028029,16.9918885 19.8028029,17.1808655 C19.8028029,17.4401113 19.6060317,17.5570667 19.1699917,17.5570667 C18.8413982,17.5570667 18.5355768,17.5063966 18.1827678,17.3934247 C18.1827678,17.3934247 18.0384368,18.3099471 18.0317013,18.3531281 C18.281875,18.4076223 18.5052673,18.4573363 19.1778497,18.4766164 C20.340516,18.4766164 20.8774273,18.036998 20.8774273,17.0865363 C20.8774273,16.5148253 20.6525917,16.1795744 20.1007662,15.9278176 C19.638907,15.7166924 19.5858253,15.6700058 19.5858253,15.4756113 C19.5858253,15.2507829 19.7689653,15.1351023 20.1251421,15.1351023 C20.3409971,15.1351023 20.6365549,15.1590032 20.916557,15.1982008 L21.0733967,14.2337172 C20.7881024,14.1889427 20.3557509,14.1522946 20.1038132,14.1522946 C18.8712266,14.1522946 18.4448087,14.7918844 18.4484972,15.5602208" id="Fill-350" fill="#FFFFFF"></path>
            <path d="M40.9742341,18.4044355 L39.9321644,18.4044355 L39.9838028,18.0173992 C39.6815096,18.3381502 39.3718394,18.4766164 38.9680334,18.4766164 C38.1674775,18.4766164 37.6377828,17.7911368 37.6377828,16.7506481 C37.6377828,15.3672603 38.4590261,14.2012119 39.4303737,14.2012119 C39.8575934,14.2012119 40.1810552,14.3745736 40.4823862,14.7684615 L40.7267867,13.2905852 L41.8132783,13.2905852 L40.9742341,18.4044355 L40.9742341,18.4044355 Z M39.3489069,17.4434574 C39.8622441,17.4434574 40.2224301,16.8658508 40.2224301,16.0420642 C40.2224301,15.5135342 40.0173197,15.2264039 39.6386914,15.2264039 C39.1389854,15.2264039 38.784252,15.806082 38.784252,16.623973 C38.784252,17.1682776 38.9742878,17.4434574 39.3489069,17.4434574 L39.3489069,17.4434574 Z" id="Fill-351" fill="#FFFFFF"></path>
            <path d="M36.135618,14.2455084 C35.9978621,15.5328143 35.7528202,16.8365323 35.5611807,18.1247942 L35.5109856,18.4044355 L36.6128725,18.4044355 C37.0070564,15.8610542 37.1018338,15.3647109 37.7202119,15.426694 C37.8185173,14.906131 38.0018176,14.45026 38.1382906,14.220492 C37.6769126,14.1248882 37.4192016,14.3839746 37.0814671,14.8763345 C37.1084088,14.6632972 37.1570003,14.4566335 37.1478593,14.2455084 L36.135618,14.2455084" id="Fill-352" fill="#FFFFFF"></path>
            <path d="M27.0669814,14.2455084 C26.928584,15.5328143 26.6832214,16.8365323 26.4919026,18.1247942 L26.4418679,18.4044355 L27.5440755,18.4044355 C27.9384198,15.8610542 28.0328765,15.3647109 28.6502923,15.426694 C28.7492392,14.906131 28.9328603,14.45026 29.0690126,14.220492 C28.6081156,14.1248882 28.3499235,14.3839746 28.0128305,14.8763345 C28.0394515,14.6632972 28.0883637,14.4566335 28.0787416,14.2455084 L27.0669814,14.2455084" id="Fill-353" fill="#FFFFFF"></path>
        </g>
    </g>
</svg>