<?xml version="1.0" encoding="UTF-8"?>
<svg width="52px" height="31px" viewBox="0 0 52 31" version="1.1" xmlns="http://www.w3.org/2000/svg" xmlns:xlink="http://www.w3.org/1999/xlink">
    <g id="card-amex" stroke="none" stroke-width="1" fill="none" fill-rule="evenodd">
        <g id="AmericanExpress-dark">
            <rect id="Rectangle" fill="#0072CE" x="0" y="0" width="52" height="31" rx="4"></rect>
            <path d="M43.8918279,17.9105513 L42.0546466,17.9105513 C41.871221,17.9105513 41.7493613,17.9173556 41.6467092,17.9860293 C41.5403681,18.0536948 41.499409,18.1541222 41.499409,18.2866812 C41.499409,18.4443156 41.5892138,18.5515473 41.7198504,18.5979177 C41.8261915,18.6345857 41.940419,18.6452962 42.1083259,18.6452962 L42.6546593,18.659787 C43.2059536,18.6732697 43.5739496,18.7671447 43.7983343,18.9960988 C43.8391662,19.0279785 43.8637162,19.0637644 43.8918279,19.0995503 L43.8918279,17.9105513 Z M43.8918279,20.6654354 C43.6469636,21.0201442 43.1698282,21.1999557 42.5238955,21.1999557 L40.5771931,21.1999557 L40.5771931,20.3039222 L42.5160089,20.3039222 C42.7083387,20.3039222 42.8429186,20.2788469 42.9239464,20.2004707 C42.994162,20.1358293 43.0431348,20.0419543 43.0431348,19.9279183 C43.0431348,19.8061958 42.994162,19.7095487 42.9200031,19.6515856 C42.8468619,19.5878262 42.7403936,19.5588447 42.5648546,19.5588447 C41.6183431,19.526965 40.4375251,19.5878262 40.4375251,18.2655121 C40.4375251,17.6594199 40.8260006,17.0214481 41.883814,17.0214481 L43.8917007,17.0214481 L43.8917007,16.190056 L42.0261533,16.190056 C41.4631564,16.190056 41.0542013,16.3236231 40.764562,16.5312821 L40.764562,16.190056 L38.0051648,16.190056 C37.5639004,16.190056 37.0459331,16.2984217 36.8009416,16.5312821 L36.8009416,16.190056 L31.8733831,16.190056 L31.8733831,16.5312821 C31.4812187,16.2510432 30.8195129,16.190056 30.5141005,16.190056 L27.26383,16.190056 L27.26383,16.5312821 C26.9535839,16.2336543 26.2636392,16.190056 25.8431087,16.190056 L22.2055076,16.190056 L21.3730965,17.0824353 L20.5934742,16.190056 L15.159651,16.190056 L15.159651,22.0206373 L20.4912037,22.0206373 L21.3489281,21.1141452 L22.1569164,22.0206373 L25.4433122,22.0235354 L25.4433122,20.6519527 L25.7664058,20.6519527 C26.2024549,20.658631 26.7167334,20.6412421 27.1704636,20.4469398 L27.1704636,22.0205112 L29.8811423,22.0205112 L29.8811423,20.5008706 L30.0119062,20.5008706 C30.1787955,20.5008706 30.1952046,20.507675 30.1952046,20.6728698 L30.1952046,22.0203852 L38.4297657,22.0203852 C38.9525667,22.0203852 39.4990273,21.8878262 39.8016414,21.6472795 L39.8016414,22.0203852 L42.4136112,22.0203852 C42.9571462,22.0203852 43.4879609,21.9449072 43.8918279,21.751613 L43.8918279,20.6654354 L43.8918279,20.6654354 Z M39.8708393,18.9960988 C40.0671123,19.1973315 40.1723085,19.451361 40.1723085,19.8814218 C40.1723085,20.7803535 39.6053684,21.1999557 38.5887684,21.1999557 L36.6254026,21.1999557 L36.6254026,20.3039222 L38.5808819,20.3039222 C38.7720668,20.3039222 38.9076643,20.2788469 38.9926354,20.2004707 C39.0619606,20.1358293 39.1116967,20.0419543 39.1116967,19.9279183 C39.1116967,19.8061958 39.0578901,19.7095487 38.9886921,19.6515856 C38.9116076,19.5878262 38.8052666,19.5588447 38.6297276,19.5588447 C37.6870321,19.526965 36.5064686,19.5878262 36.5064686,18.2655121 C36.5064686,17.6594199 36.8908736,17.0214481 37.9476694,17.0214481 L39.9685306,17.0214481 L39.9685306,17.9108033 L38.1193924,17.9108033 C37.936094,17.9108033 37.8169055,17.9176076 37.7155254,17.9862813 C37.6051139,18.0539469 37.5641548,18.1543742 37.5641548,18.2869332 C37.5641548,18.4445676 37.6579028,18.5517993 37.7847234,18.5981697 C37.8910644,18.6348377 38.005292,18.6455482 38.177015,18.6455482 L38.7196595,18.660039 C39.2668833,18.6732697 39.6425114,18.7670187 39.8708393,18.9960988 L39.8708393,18.9960988 Z M30.774865,18.7380371 C30.6400306,18.8172953 30.4732686,18.8240997 30.2771228,18.8240997 L29.0525473,18.8240997 L29.0525473,17.8856019 L30.2937863,17.8856019 C30.4732686,17.8856019 30.652878,17.8893821 30.774865,17.9610799 C30.9055016,18.0287455 30.9836037,18.1581544 30.9836037,18.3369579 C30.9836037,18.5157614 30.9055016,18.659787 30.774865,18.7380371 L30.774865,18.7380371 Z M31.3836546,19.2580667 C31.6080393,19.3400971 31.7914649,19.4871469 31.8774536,19.6088693 C32.0197928,19.8128742 32.0403996,20.0032703 32.04447,20.3715878 L32.04447,21.1999557 L31.0324494,21.1999557 L31.0324494,20.677154 C31.0324494,20.4257707 31.0568722,20.0535469 30.8695034,19.8592446 C30.7222032,19.7095487 30.4976914,19.6737628 30.1299498,19.6737628 L29.0526745,19.6737628 L29.0526745,21.1999557 L28.0397634,21.1999557 L28.0397634,17.0213221 L30.3670547,17.0213221 C30.8773899,17.0213221 31.2490747,17.0436253 31.5799276,17.2185225 C31.8980603,17.4089186 32.0981494,17.6697525 32.0981494,18.1464358 C32.0980222,18.8133891 31.6489984,19.1537332 31.3836546,19.2580667 L31.3836546,19.2580667 Z M32.6570758,17.0213221 L36.0214466,17.0213221 L36.0214466,17.8854759 L33.6609555,17.8854759 L33.6609555,18.6451702 L35.963824,18.6451702 L35.963824,19.4977314 L33.6609555,19.4977314 L33.6609555,20.3291235 L36.0214466,20.3329037 L36.0214466,21.1999557 L32.6570758,21.1999557 L32.6570758,17.0213221 L32.6570758,17.0213221 Z M25.8559562,18.9497284 L24.5532785,18.9497284 L24.5532785,17.8856019 L25.8676588,17.8856019 C26.2315842,17.8856019 26.4842078,18.0325257 26.4842078,18.3979451 C26.4842078,18.7593323 26.2432868,18.9497284 25.8559562,18.9497284 L25.8559562,18.9497284 Z M23.5492716,20.8199196 L22.0016025,19.1178213 L23.5492716,17.4697799 L23.5492716,20.8199196 L23.5492716,20.8199196 Z M19.5524515,20.3291235 L17.074044,20.3291235 L17.074044,19.4977314 L19.2871077,19.4977314 L19.2871077,18.6451702 L17.074044,18.6451702 L17.074044,17.8854759 L19.6012971,17.8854759 L20.7038857,19.1032045 L19.5524515,20.3291235 L19.5524515,20.3291235 Z M27.566444,18.3979451 C27.566444,19.5587187 26.6921834,19.7983834 25.8110538,19.7983834 L24.5532785,19.7983834 L24.5532785,21.1999557 L22.5939831,21.1999557 L21.3527441,19.8166544 L20.0627867,21.1999557 L16.0699099,21.1999557 L16.0699099,17.0213221 L20.1242254,17.0213221 L21.3644467,18.3910147 L22.6466448,17.0213221 L25.8676588,17.0213221 C26.6676334,17.0213221 27.566444,17.2406997 27.566444,18.3979451 L27.566444,18.3979451 Z" id="EXPRESS" fill="#FFFFFF"></path>
            <path d="M11.2605222,12.2058507 L10.5705775,10.5404203 L9.88457604,12.2058507 L11.2605222,12.2058507 Z M26.4599122,11.5426775 C26.321389,11.6259679 26.1575526,11.6287401 25.9612796,11.6287401 L24.7367041,11.6287401 L24.7367041,10.7008269 L25.9779431,10.7008269 C26.1536093,10.7008269 26.3369076,10.7086393 26.4559689,10.7761788 C26.5867328,10.8370401 26.6676334,10.9665749 26.6676334,11.1455044 C26.6676334,11.3280881 26.590676,11.4750119 26.4599122,11.5426775 L26.4599122,11.5426775 Z M35.1959044,12.2058507 L34.4983275,10.5404203 L33.8045668,12.2058507 L35.1959044,12.2058507 L35.1959044,12.2058507 Z M18.9114796,14.0085023 L17.878089,14.0085023 L17.874273,10.7366127 L16.4125926,14.0085023 L15.5275197,14.0085023 L14.0620233,10.7337146 L14.0620233,14.0085023 L12.0117783,14.0085023 L11.6244476,13.0766829 L9.52561145,13.0766829 L9.13433751,14.0085023 L8.03950824,14.0085023 L9.84463455,9.83087671 L11.3423132,9.83087671 L13.0567443,13.7862265 L13.0567443,9.83087671 L14.7019775,9.83087671 L16.0211914,12.664893 L17.2330467,9.83087671 L18.9113524,9.83087671 L18.9113524,14.0085023 L18.9114796,14.0085023 Z M23.0301594,14.0085023 L19.6627358,14.0085023 L19.6627358,9.83087671 L23.0301594,9.83087671 L23.0301594,10.7008269 L20.6708132,10.7008269 L20.6708132,11.4538428 L22.9735545,11.4538428 L22.9735545,12.3101842 L20.6708132,12.3101842 L20.6708132,13.1444745 L23.0301594,13.1444745 L23.0301594,14.0085023 L23.0301594,14.0085023 Z M27.7781085,10.9559904 C27.7781085,11.6220617 27.3293392,11.966186 27.0678114,12.0695114 C27.2883801,12.1526759 27.4767665,12.2995996 27.566444,12.4213221 C27.7087833,12.6291071 27.7333333,12.814715 27.7333333,13.1878208 L27.7333333,14.0085023 L26.7166062,14.0085023 L26.7127901,13.4816683 C26.7127901,13.230285 26.7370857,12.8687718 26.5536602,12.6677912 C26.40636,12.5208674 26.1818482,12.4889877 25.8189403,12.4889877 L24.7368313,12.4889877 L24.7368313,14.0085023 L23.7288811,14.0085023 L23.7288811,9.83087671 L26.0473955,9.83087671 C26.5625643,9.83087671 26.9421357,9.84435942 27.2680277,10.0309753 C27.5869236,10.2175912 27.7781085,10.4900177 27.7781085,10.9559904 L27.7781085,10.9559904 Z M29.3912867,14.0085023 L28.3627298,14.0085023 L28.3627298,9.83087671 L29.3912867,9.83087671 L29.3912867,14.0085023 L29.3912867,14.0085023 Z M41.32387,14.0085023 L39.8953894,14.0085023 L37.9846852,10.872952 L37.9846852,14.0085023 L35.931769,14.0085023 L35.5394775,13.0766829 L33.445475,13.0766829 L33.064886,14.0085023 L31.8853401,14.0085023 C31.3953572,14.0085023 30.7749922,13.9011446 30.4236597,13.5464358 C30.0694016,13.191727 29.8850856,12.7112635 29.8850856,11.9515692 C29.8850856,11.3319943 29.9952427,10.7655943 30.4284934,10.3180185 C30.7543854,9.98460486 31.2647206,9.83087671 31.9593718,9.83087671 L32.935267,9.83087671 L32.935267,10.7260282 L31.9798513,10.7260282 C31.6119826,10.7260282 31.4042614,10.7802111 31.2041724,10.9735053 C31.0323222,11.1494106 30.9144058,11.4819423 30.9144058,11.9198155 C30.9144058,12.3673912 31.0042105,12.6900944 31.1915793,12.9009035 C31.346766,13.0662243 31.6287733,13.116375 31.894117,13.116375 L32.3468296,13.116375 L33.7675509,9.83100272 L35.2779498,9.83100272 L36.9846216,13.7824463 L36.9846216,9.83100272 L38.5194433,9.83100272 L40.2913698,12.740497 L40.2913698,9.83100272 L41.32387,9.83100272 L41.32387,14.0085023 L41.32387,14.0085023 Z M8.02780563,14.8290578 L9.75012332,14.8290578 L10.1384716,13.9011446 L11.0078986,13.9011446 L11.3952293,14.8290578 L14.7840229,14.8290578 L14.7840229,14.1196402 L15.0865097,14.832082 L16.845716,14.832082 L17.1482029,14.1090556 L17.1482029,14.8290578 L25.5700056,14.8290578 L25.5660624,13.305889 L25.7290084,13.305889 C25.8431087,13.3097952 25.8764357,13.3202538 25.8764357,13.5068697 L25.8764357,14.8290578 L30.2322204,14.8290578 L30.2322204,14.474475 C30.5835529,14.6609649 31.1300135,14.8290578 31.8490875,14.8290578 L33.6815623,14.8290578 L34.0737266,13.9011446 L34.9431536,13.9011446 L35.3266682,14.8290578 L38.8579283,14.8290578 L38.8579283,13.9476411 L39.3926863,14.8290578 L42.2224263,14.8290578 L42.2224263,9.00250877 L39.4219428,9.00250877 L39.4219428,9.69063127 L39.0297785,9.00250877 L36.1561537,9.00250877 L36.1561537,9.69063127 L35.7960443,9.00250877 L31.9144694,9.00250877 C31.2647206,9.00250877 30.6935828,9.09235154 30.2322204,9.34272682 L30.2322204,9.00250877 L27.5535966,9.00250877 L27.5535966,9.34272682 C27.260014,9.08466513 26.8599631,9.00250877 26.415137,9.00250877 L16.6290907,9.00250877 L15.972473,10.5074066 L15.2981742,9.00250877 L12.2158106,9.00250877 L12.2158106,9.69063127 L11.8771984,9.00250877 L9.24843788,9.00250877 L8.02767843,11.7727657 L8.02767843,14.8290578 L8.02780563,14.8290578 Z" id="AMERICAN" fill="#FFFFFF"></path>
        </g>
    </g>
</svg>