<?xml version="1.0" encoding="UTF-8"?>
<svg width="52px" height="31px" viewBox="0 0 52 31" version="1.1" xmlns="http://www.w3.org/2000/svg" xmlns:xlink="http://www.w3.org/1999/xlink">
    <g id="card-paypal" stroke="none" stroke-width="1" fill="none" fill-rule="evenodd">
        <g id="Paypal-dark" transform="translate(26.000000, 15.500000) scale(1, -1) translate(-26.000000, -15.500000) ">
            <rect id="Rectangle" fill="#00457C" x="0" y="0" width="52" height="31" rx="4"></rect>
            <path d="M40.7816315,19.6367527 L39.7329138,13.007005 C39.7124863,12.8786789 39.8123172,12.7624652 39.9431186,12.7624652 L40.9980964,12.7624652 C41.1727179,12.7624652 41.3216404,12.8888271 41.3486574,13.0603651 L42.3828782,19.5709529 C42.4033057,19.699279 42.3034749,19.8154927 42.172344,19.8154927 L40.9921658,19.8154927 C40.8870634,19.8154927 40.7977758,19.739872 40.7816315,19.6367527" id="Shape" fill="#FFFFFF"></path>
            <path d="M27.6301573,17.4668624 L26.4002285,17.4668624 C26.2826061,17.4668624 26.1725615,17.4089192 26.1066666,17.3120199 L24.4098722,14.8293018 L23.6909586,17.2151205 C23.6458206,17.3643979 23.5074412,17.4668624 23.3506113,17.4668624 L22.1417689,17.4668624 C21.9958116,17.4668624 21.8930155,17.3241323 21.9401304,17.1869673 L23.2942711,13.23701 L22.0205222,11.4512469 C21.9206914,11.3111357 22.0215106,11.1173371 22.1944848,11.1173371 L23.4230957,11.1173371 C23.5394003,11.1173371 23.6484564,11.1739708 23.7150102,11.268906 L27.8051083,17.1345893 C27.9029623,17.2750279 27.8021431,17.4668624 27.6301573,17.4668624" id="Shape" fill="#FFFFFF"></path>
            <path d="M37.6340286,15.1003908 C37.5157472,14.4057273 36.9609119,13.9392356 36.2528709,13.9392356 C35.8980267,13.9392356 35.6136901,14.0528304 35.4311612,14.2675803 C35.2499501,14.480366 35.1820783,14.7838311 35.2394069,15.121342 C35.3494515,15.8101129 35.913512,16.291336 36.6106803,16.291336 C36.9582761,16.291336 37.2403064,16.176759 37.4264595,15.960045 C37.6139306,15.7416941 37.6877329,15.4365922 37.6340286,15.1003908 M39.3393893,17.4668951 L38.1157205,17.4668951 C38.0109475,17.4668951 37.9216599,17.3912744 37.9051862,17.2881551 L37.8514818,16.9483527 L37.7658184,17.0714411 C37.5009208,17.4534733 36.9101728,17.581472 36.3204132,17.581472 C34.9685788,17.581472 33.8137702,16.5633743 33.5890685,15.1357459 C33.472105,14.4234049 33.6381602,13.742818 34.0447319,13.2678148 C34.4180267,12.8314405 34.9507871,12.6497542 35.5856848,12.6497542 C36.6755869,12.6497542 37.2798433,13.3450724 37.2798433,13.3450724 L37.2251505,13.0072342 C37.2047231,12.878908 37.3045539,12.7626943 37.4356848,12.7626943 L38.537448,12.7626943 C38.712399,12.7626943 38.8609921,12.8887289 38.8883385,13.0602669 L39.5499236,17.2223552 C39.570351,17.3506814 39.4701907,17.4668951 39.3393893,17.4668951" id="Shape" fill="#FFFFFF"></path>
            <path d="M19.4075577,15.1003908 C19.2892763,14.4057273 18.7344411,13.9392356 18.0264001,13.9392356 C17.6715559,13.9392356 17.3872193,14.0528304 17.2046903,14.2675803 C17.0238088,14.480366 16.9556075,14.7838311 17.0129361,15.121342 C17.1229806,15.8101129 17.6870412,16.291336 18.3842095,16.291336 C18.7318053,16.291336 19.0138355,16.176759 19.1999887,15.960045 C19.3874598,15.7416941 19.4612621,15.4365922 19.4075577,15.1003908 M21.1129184,17.4668951 L19.8892496,17.4668951 C19.7844767,17.4668951 19.6951891,17.3912744 19.6787154,17.2881551 L19.625011,16.9483527 L19.5396771,17.0714411 C19.27445,17.4534733 18.683702,17.581472 18.0939424,17.581472 C16.7421079,17.581472 15.5872994,16.5633743 15.3625977,15.1357459 C15.2456342,14.4234049 15.4116894,13.742818 15.8182611,13.2678148 C16.1915558,12.8314405 16.7243163,12.6497542 17.3592139,12.6497542 C18.449116,12.6497542 19.0533725,13.3450724 19.0533725,13.3450724 L18.9986797,13.0072342 C18.9782523,12.878908 19.0780831,12.7626943 19.209214,12.7626943 L20.3109772,12.7626943 C20.4859282,12.7626943 20.6345213,12.8887289 20.6618677,13.0602669 L21.3234527,17.2223552 C21.3438802,17.3506814 21.2437199,17.4668951 21.1129184,17.4668951" id="Shape" fill="#FFFFFF"></path>
            <path d="M13.7698184,17.4376944 C13.6301212,16.5263168 12.9296581,16.5263168 12.2519288,16.5263168 L11.8664435,16.5263168 L12.1369421,18.2279477 C12.1530864,18.3307396 12.242374,18.4063604 12.347147,18.4063604 L12.5240748,18.4063604 C12.9853393,18.4063604 13.4209048,18.4063604 13.6456065,18.1454523 C13.7800321,17.9893004 13.8205575,17.7575276 13.7698184,17.4376944 M13.4749386,19.8156564 L10.9195334,19.8156564 C10.7445823,19.8156564 10.5959893,19.6892944 10.5686429,19.5177564 L9.53541044,13.0071687 C9.51498302,12.8788426 9.61481383,12.7626288 9.74561526,12.7626288 L10.9659893,12.7626288 C11.1406109,12.7626288 11.2892039,12.8889908 11.3165503,13.0602015 L11.5956153,14.8168293 C11.6226322,14.9883673 11.7715548,15.1147292 11.9461763,15.1147292 L12.7547071,15.1147292 C14.437993,15.1147292 15.4096137,15.9239696 15.6633092,17.5283738 C15.7776368,18.2295845 15.6679218,18.7808632 15.3374587,19.1668237 C14.9740482,19.5910857 14.3299253,19.8156564 13.4749386,19.8156564" id="Shape" fill="#FFFFFF"></path>
            <path d="M31.9962563,17.4376944 C31.8565591,16.5263168 31.156096,16.5263168 30.4783667,16.5263168 L30.0928814,16.5263168 L30.36338,18.2279477 C30.3795243,18.3307396 30.4688119,18.4063604 30.5735848,18.4063604 L30.7505127,18.4063604 C31.2117772,18.4063604 31.6473427,18.4063604 31.8720444,18.1454523 C32.00647,17.9893004 32.0469954,17.7575276 31.9962563,17.4376944 M31.7013765,19.8156564 L29.1459713,19.8156564 C28.9710202,19.8156564 28.8224272,19.6892944 28.7950808,19.5177564 L27.7618483,13.0071687 C27.7414209,12.8788426 27.8415812,12.7626288 27.9720531,12.7626288 L29.2833622,12.7626288 C29.4055973,12.7626288 29.5097113,12.8510168 29.5288208,12.9708315 L29.8220532,14.8168293 C29.8490701,14.9883673 29.9979927,15.1147292 30.1726142,15.1147292 L30.981145,15.1147292 C32.6644309,15.1147292 33.6360516,15.9239696 33.889747,17.5283738 C34.0040747,18.2295845 33.8943597,18.7808632 33.5638966,19.1668237 C33.2004861,19.5910857 32.5563632,19.8156564 31.7013765,19.8156564" id="Shape" fill="#FFFFFF"></path>
        </g>
    </g>
</svg>