<?xml version="1.0" encoding="UTF-8"?>
<svg width="24px" height="24px" viewBox="0 0 24 24" version="1.1" xmlns="http://www.w3.org/2000/svg" xmlns:xlink="http://www.w3.org/1999/xlink">
    <g id="close" stroke="none" stroke-width="1" fill="none" fill-rule="evenodd">
        <path d="M23.7272103,0.273276187 C24.0912578,0.636979312 24.0903171,1.22615119 23.7253289,1.58891681 L13.2497916,12.0000887 L23.7257052,22.4112137 C24.0906463,22.7740262 24.091587,23.3628231 23.7275866,23.7265731 C23.5449514,23.9089168 23.3056866,24.0000887 23.0664217,24.0000887 C22.8277684,24.0000887 22.5894443,23.9095262 22.4071383,23.7284481 L12,13.385 L1.5928617,23.7284481 C1.44094007,23.8793465 1.25011693,23.9673869 1.05261968,23.992542 L0.93357826,24.0000887 C0.69431345,24.0000887 0.45504864,23.9089168 0.272413441,23.7265731 C-0.091587024,23.3628231 -0.0906463327,22.7740262 0.274294823,22.4112137 L0.274294823,22.4112137 L10.7502084,12.0000887 L0.2746711,1.58891681 C-0.0903170908,1.22615119 -0.091257782,0.636979312 0.272789717,0.273276187 C0.637119424,-0.0904738126 1.22796758,-0.0910831876 1.59290873,0.271401187 L1.59290873,0.271401187 L11.999,10.614 L22.4070913,0.271401187 C22.7720324,-0.0910831876 23.3628806,-0.0904738126 23.7272103,0.273276187 Z" id="Path-2" fill="currentColor" fill-rule="nonzero"></path>
    </g>
</svg>