<?xml version="1.0" encoding="UTF-8"?>
<svg width="210px" height="48px" viewBox="0 0 210 48" version="1.1" xmlns="http://www.w3.org/2000/svg" xmlns:xlink="http://www.w3.org/1999/xlink">
    <title>Group 2</title>
    <g id="Page-1" stroke="none" stroke-width="1" fill="none" fill-rule="evenodd">
        <g id="Stock" transform="translate(-239.000000, -22.000000)">
            <g id="Group-2" transform="translate(239.000000, 22.905126)">
                <g id="StaticStarter" transform="translate(43.000000, 10.094874)" fill="currentColor" fill-rule="nonzero">
                    <path d="M0,16.4818418 C0.134968965,20.5389105 3.5691793,23 8.72799308,23 C14.1417482,23 17.4559862,20.3300908 17.4559862,16.1238651 C17.4559862,12.8573281 15.4614448,11.0226978 10.8874965,10.1128405 L8.59302412,9.65045396 C6.04361033,9.14332036 4.99385171,8.3229572 4.99385171,6.99546044 C4.99385171,5.41439689 6.49350688,4.37029831 8.72799308,4.37029831 C11.0074689,4.37029831 12.6121,5.47405966 12.7620655,7.30869001 L17.0360827,7.30869001 C16.9611,3.35603113 13.781831,0.730869001 8.72799308,0.730869001 C3.91409999,0.730869001 0.464893102,3.34111543 0.464893102,7.27885863 C0.464893102,10.4857328 2.57940689,12.5440986 6.89841378,13.3942931 L9.17788963,13.8417639 C11.8922655,14.3936446 12.912031,15.1990921 12.912031,16.616083 C12.912031,18.1971466 11.2624103,19.3605707 8.8479655,19.3605707 C6.38853102,19.3605707 4.55895171,18.2866407 4.27401723,16.4818418 L0,16.4818418 Z" id="Path"></path>
                    <path d="M21.0400287,2.95330739 L21.0400287,6.63748379 L18.7755494,6.63748379 L18.7755494,9.91893645 L21.0400287,9.91893645 L21.0400287,18.3164721 C21.0400287,21.4338521 22.5096908,22.6867704 26.2888218,22.6867704 C27.1736184,22.6867704 27.9234459,22.612192 28.3733425,22.5077821 L28.3733425,19.3009079 C28.1034046,19.345655 27.6984977,19.3754864 27.3085873,19.3754864 C26.0188839,19.3754864 25.4190218,18.7937743 25.4190218,17.5706874 L25.4190218,9.91893645 L28.388339,9.91893645 L28.388339,6.63748379 L25.4190218,6.63748379 L25.4190218,2.95330739 L21.0400287,2.95330739 Z" id="Path"></path>
                    <path d="M36.876254,19.733463 C35.3915954,19.733463 34.401823,18.9876783 34.401823,17.7944228 C34.401823,16.6608301 35.3316092,15.9299611 36.9662333,15.8106355 L40.355454,15.6018158 L40.355454,16.7652399 C40.355454,18.4954604 38.7808161,19.733463 36.876254,19.733463 Z M35.436585,22.8806744 C37.446123,22.8806744 39.4406643,21.881323 40.3404574,20.1809339 L40.4304368,20.1809339 L40.4304368,22.6271077 L44.6594643,22.6271077 L44.6594643,11.6342412 C44.6594643,8.41245136 41.9750816,6.29442283 37.8510299,6.29442283 C33.5920092,6.29442283 30.9376195,8.42736706 30.7726575,11.5298314 L34.7767368,11.5298314 C34.9866885,10.3514916 36.0214506,9.5460441 37.6560747,9.5460441 C39.3056954,9.5460441 40.355454,10.4111543 40.355454,11.9027237 L40.355454,12.961738 L36.306385,13.2003891 C32.3023057,13.4390402 30.052823,15.1245136 30.052823,18.0330739 C30.052823,20.9118029 32.3772885,22.8806744 35.436585,22.8806744 Z" id="Shape"></path>
                    <path d="M48.6784069,2.95330739 L48.6784069,6.63748379 L46.4139276,6.63748379 L46.4139276,9.91893645 L48.6784069,9.91893645 L48.6784069,18.3164721 C48.6784069,21.4338521 50.1480689,22.6867704 53.9272,22.6867704 C54.8119965,22.6867704 55.5618241,22.612192 56.0117207,22.5077821 L56.0117207,19.3009079 C55.7417827,19.345655 55.3368758,19.3754864 54.9469655,19.3754864 C53.657262,19.3754864 53.0574,18.7937743 53.0574,17.5706874 L53.0574,9.91893645 L56.0267172,9.91893645 L56.0267172,6.63748379 L53.0574,6.63748379 L53.0574,2.95330739 L48.6784069,2.95330739 Z" id="Path"></path>
                    <path d="M58.531008,22.6271077 L62.9100011,22.6271077 L62.9100011,6.63748379 L58.531008,6.63748379 L58.531008,22.6271077 Z M60.705508,4.47470817 C61.9802149,4.47470817 62.9849839,3.46044099 62.9849839,2.23735409 C62.9849839,0.999351492 61.9802149,0 60.705508,0 C59.4308011,0 58.4260322,0.999351492 58.4260322,2.23735409 C58.4260322,3.46044099 59.4308011,4.47470817 60.705508,4.47470817 Z" id="Shape"></path>
                    <path d="M80.4558333,12.5888457 C80.2608781,8.96433204 77.5015126,6.29442283 73.1525126,6.29442283 C68.3386195,6.29442283 65.2643264,9.48638132 65.2643264,14.61738 C65.2643264,19.8378729 68.3386195,22.9701686 73.1825057,22.9701686 C77.4115333,22.9701686 80.2458816,20.5389105 80.4708299,16.7652399 L76.3917678,16.7652399 C76.1218299,18.5103761 74.9820919,19.5544747 73.2274954,19.5544747 C71.0529954,19.5544747 69.7033057,17.7645914 69.7033057,14.61738 C69.7033057,11.5298314 71.0529954,9.71011673 73.2124988,9.71011673 C75.012085,9.71011673 76.1368264,10.9033722 76.3917678,12.5888457 L80.4558333,12.5888457 Z" id="Path"></path>
                    <path d="M82.2402897,16.8547341 C82.495231,20.5687419 85.6445069,22.9850843 90.3684207,22.9850843 C95.2123069,22.9850843 98.3615827,20.4941634 98.3615827,16.5116732 C98.3615827,13.4688716 96.5769931,11.6789883 92.063031,10.6945525 L89.6635827,10.1725032 C86.7092621,9.5311284 85.5545276,8.36770428 85.5545276,6.66731518 C85.5545276,4.47470817 87.6390483,3.16212711 90.3384276,3.16212711 C93.1577793,3.16212711 95.0323483,4.60894942 95.2722931,6.96562905 L97.9716724,6.96562905 C97.8517,3.31128405 94.7324172,0.745784695 90.4134103,0.745784695 C85.9294414,0.745784695 82.7801655,3.23670558 82.7801655,6.78664073 C82.7801655,9.84435798 84.6547345,11.7983139 88.9887379,12.7380026 L91.3881862,13.2600519 C94.3874965,13.9163424 95.5872207,15.1095979 95.5872207,16.9143969 C95.5872207,19.0324254 93.4577103,20.5687419 90.5183862,20.5687419 C87.4141,20.5687419 85.2545965,19.1666667 84.939669,16.8547341 L82.2402897,16.8547341 Z" id="Path"></path>
                    <path d="M101.975618,3.37094682 L101.975618,7.11478599 L99.6511529,7.11478599 L99.6511529,9.24773022 L101.975618,9.24773022 L101.975618,18.5998703 C101.975618,21.5830091 103.085363,22.7464332 105.949705,22.7464332 C106.564563,22.7464332 107.284398,22.7016861 107.599325,22.6271077 L107.599325,20.4494163 C107.419367,20.4792477 106.819505,20.5239948 106.519574,20.5239948 C105.18488,20.5239948 104.585018,19.88262 104.585018,18.4656291 L104.585018,9.24773022 L107.614322,9.24773022 L107.614322,7.11478599 L104.585018,7.11478599 L104.585018,3.37094682 L101.975618,3.37094682 Z" id="Path"></path>
                    <path d="M115.26243,20.6880674 C113.387861,20.6880674 112.143147,19.7185473 112.143147,18.2418936 C112.143147,16.7801556 113.342871,15.8553826 115.442388,15.7211414 L119.61143,15.4675746 L119.61143,16.7354086 C119.61143,18.9727626 117.721864,20.6880674 115.26243,20.6880674 Z M114.677564,22.8955901 C116.777082,22.8955901 118.756626,21.732166 119.686413,19.9571984 L119.746399,19.9571984 L119.746399,22.6271077 L122.22083,22.6271077 L122.22083,11.9027237 C122.22083,8.8151751 119.911361,6.8463035 116.252202,6.8463035 C112.563051,6.8463035 110.253582,8.90466926 110.073623,11.5894942 L112.593044,11.5894942 C112.922968,10.0680934 114.182678,9.12840467 116.192216,9.12840467 C118.35172,9.12840467 119.61143,10.2619974 119.61143,12.1562905 L119.61143,13.4539559 L115.142457,13.7075227 C111.543285,13.9163424 109.488757,15.5869001 109.488757,18.2418936 C109.488757,21.0311284 111.573278,22.8955901 114.677564,22.8955901 Z" id="Shape"></path>
                    <path d="M125.564928,22.6271077 L128.174328,22.6271077 L128.174328,12.961738 C128.174328,10.769131 129.494024,9.32230869 131.518559,9.32230869 C132.148414,9.32230869 132.703286,9.39688716 132.913238,9.47146563 L132.913238,6.95071336 C132.703286,6.92088197 132.313376,6.8463035 131.863479,6.8463035 C130.0339,6.8463035 128.594231,7.93514916 128.084348,9.65045396 L128.024362,9.65045396 L128.024362,7.11478599 L125.564928,7.11478599 L125.564928,22.6271077 Z" id="Path"></path>
                    <path d="M135.897418,3.37094682 L135.897418,7.11478599 L133.572953,7.11478599 L133.572953,9.24773022 L135.897418,9.24773022 L135.897418,18.5998703 C135.897418,21.5830091 137.007163,22.7464332 139.871505,22.7464332 C140.486363,22.7464332 141.206198,22.7016861 141.521125,22.6271077 L141.521125,20.4494163 C141.341167,20.4792477 140.741305,20.5239948 140.441374,20.5239948 C139.10668,20.5239948 138.506818,19.88262 138.506818,18.4656291 L138.506818,9.24773022 L141.536122,9.24773022 L141.536122,7.11478599 L138.506818,7.11478599 L138.506818,3.37094682 L135.897418,3.37094682 Z" id="Path"></path>
                    <path d="M150.144009,9.09857328 C152.603444,9.09857328 154.238068,10.9481193 154.298054,13.5434501 L145.825002,13.5434501 C145.989964,10.963035 147.699571,9.09857328 150.144009,9.09857328 Z M154.238068,18.1822309 C153.803168,19.6439689 152.348502,20.6433204 150.368957,20.6433204 C147.564602,20.6433204 145.810006,18.6893645 145.810006,15.7211414 L145.810006,15.5719844 L156.997433,15.5719844 L156.997433,14.5875486 C156.997433,9.88910506 154.40303,6.8463035 150.188999,6.8463035 C145.884989,6.8463035 143.125623,10.1128405 143.125623,14.9306096 C143.125623,19.8080415 145.839999,22.8955901 150.308971,22.8955901 C153.713189,22.8955901 156.352582,20.8968872 156.802478,18.1822309 L154.238068,18.1822309 Z" id="Shape"></path>
                    <path d="M159.65169,22.6271077 L162.26109,22.6271077 L162.26109,12.961738 C162.26109,10.769131 163.580786,9.32230869 165.605321,9.32230869 C166.235176,9.32230869 166.790048,9.39688716 167,9.47146563 L167,6.95071336 C166.790048,6.92088197 166.400138,6.8463035 165.950241,6.8463035 C164.120662,6.8463035 162.680993,7.93514916 162.17111,9.65045396 L162.111124,9.65045396 L162.111124,7.11478599 L159.65169,7.11478599 L159.65169,22.6271077 Z" id="Path"></path>
                </g>
                <g id="Group">
                    <path d="M10.3503182,32.0212709 L26.9110729,32.0847795 C29.1033868,32.0931867 30.878531,33.8683098 30.8869644,36.0606236 C30.8953145,38.2312945 29.1424072,39.9977401 26.9717363,40.0060902 C26.9616724,40.0061289 26.9516084,40.006129 26.9415446,40.0060904 L10.3807899,39.9425819 C8.18847598,39.9341746 6.41333179,38.1590516 6.40489839,35.9667378 C6.39654825,33.7960668 8.14945559,32.0296212 10.3201265,32.0212711 C10.3301904,32.0212324 10.3402543,32.0212323 10.3503182,32.0212709 Z" id="Rectangle" fill="#E11D48" transform="translate(18.645931, 36.013681) rotate(-34.000000) translate(-18.645931, -36.013681) "></path>
                    <path d="M15.3024588,19.2092317 L31.8632135,19.2727402 C34.0555274,19.2811475 35.8306716,21.0562705 35.839105,23.2485843 C35.8474552,25.4192553 34.0945478,27.1857009 31.9238769,27.194051 C31.9138131,27.1940897 31.9037491,27.1940898 31.8936852,27.1940512 L15.3329306,27.1305426 C13.1406166,27.1221354 11.3654724,25.3470123 11.357039,23.1546985 C11.3486889,20.9840276 13.1015962,19.217582 15.2722672,19.2092319 C15.282331,19.2091932 15.292395,19.2091931 15.3024588,19.2092317 Z" id="Rectangle" fill="#FBBF24" transform="translate(23.598072, 23.201641) rotate(-34.000000) translate(-23.598072, -23.201641) "></path>
                    <path d="M4.10631477,17.2874258 L20.6670694,17.3509343 C22.8593834,17.3593416 24.6345276,19.1344646 24.642961,21.3267785 C24.6513111,23.4974494 22.8984038,25.263895 20.7277328,25.2722451 C20.717669,25.2722838 20.707605,25.2722839 20.6975412,25.2722453 L4.13678648,25.2087368 C1.94447255,25.2003295 0.169328358,23.4252065 0.160894961,21.2328926 C0.15254482,19.0622217 1.90545216,17.2957761 4.07612308,17.287426 C4.08618694,17.2873873 4.09625091,17.2873872 4.10631477,17.2874258 Z" id="Rectangle" fill="#9333EA" transform="translate(12.401928, 21.279836) rotate(-34.000000) translate(-12.401928, -21.279836) "></path>
                    <path d="M6.47472986,6.18365846 L23.0354845,6.24716699 C25.2277985,6.25557426 27.0029427,8.03069729 27.0113761,10.2230111 C27.0197262,12.393682 25.2668189,14.1601276 23.0961479,14.1684778 C23.0860841,14.1685165 23.0760201,14.1685165 23.0659563,14.168478 L6.50520157,14.1049694 C4.31288764,14.0965622 2.53774345,12.3214391 2.52931005,10.1291253 C2.52095991,7.95845437 4.27386725,6.19200878 6.44453817,6.18365864 C6.45460203,6.18361993 6.464666,6.18361987 6.47472986,6.18365846 Z" id="Rectangle" fill="#10B981" transform="translate(14.770343, 10.176068) rotate(-34.000000) translate(-14.770343, -10.176068) "></path>
                </g>
            </g>
        </g>
    </g>
</svg>
