<?xml version="1.0" encoding="UTF-8"?>
<svg width="48px" height="32px" viewBox="0 0 48 32" version="1.1" xmlns="http://www.w3.org/2000/svg" xmlns:xlink="http://www.w3.org/1999/xlink">
    <title>logo</title>
    <g id="Assets" stroke="none" stroke-width="1" fill="none" fill-rule="evenodd">
        <g id="Logo" transform="translate(-33.000000, -175.000000)" fill="currentColor">
            <g id="logo" transform="translate(33.000000, 175.000000)">
                <path d="M47.996,12 C44.274,20.312 37.76,27.6 30.122,31.998 L30.122,32 L17.88,32 C10.242,27.602 3.726,20.312 0.004,12 L0,12 L0,0 L48,0 L48,12 L47.996,12 L47.996,12 Z M28.016,8 L19.984,8 C19.81,12.986 18.158,16.81 14.766,19.948 C17.08,23.114 18.758,26.654 19.538,30 L28.462,30 C29.242,26.654 30.922,23.114 33.234,19.948 C29.842,16.81 28.19,12.988 28.016,8 Z M2.532,12.662 C4.588,16.762 9.126,24.052 17.286,29.296 C15.294,22.532 9.5,15.128 2.532,12.662 Z M45.468,12.662 C38.502,15.13 32.708,22.532 30.716,29.296 C38.876,24.052 43.412,16.762 45.468,12.662 Z M46,8 L30.016,8 C30.18,12.356 31.564,15.632 34.468,18.37 C37.584,14.636 41.594,11.622 46,10.4 L46,8 Z M2,8 L2,10.4 C6.406,11.622 10.418,14.634 13.532,18.368 C16.436,15.632 17.82,12.356 17.984,8 L2,8 Z M46,6 L46,2 L2,2 L2,6 L46,6 Z" id="Shape"></path>
            </g>
        </g>
    </g>
</svg>
