<?xml version="1.0" encoding="UTF-8"?>
<svg width="165px" height="110px" viewBox="0 0 165 110" version="1.1" xmlns="http://www.w3.org/2000/svg" xmlns:xlink="http://www.w3.org/1999/xlink">
    <title>logo</title>
    <g id="Assets" stroke="none" stroke-width="1" fill="none" fill-rule="evenodd">
        <g id="Logo" transform="translate(-33.000000, -175.000000)" fill="#5145CD">
            <g id="logo" transform="translate(33.000000, 175.000000)">
                <path d="M164.98625,41.25 C152.191875,69.8225 129.8,94.875 103.544375,109.993125 L103.544375,110 L61.4625,110 C35.206875,94.881875 12.808125,69.8225 0.01375,41.25 L0,41.25 L0,0 L165,0 L165,41.25 L164.98625,41.25 L164.98625,41.25 Z M96.305,27.5 L68.695,27.5 C68.096875,44.639375 62.418125,57.784375 50.758125,68.57125 C58.7125,79.454375 64.480625,91.623125 67.161875,103.125 L97.838125,103.125 C100.519375,91.623125 106.294375,79.454375 114.241875,68.57125 C102.581875,57.784375 96.903125,44.64625 96.305,27.5 Z M8.70375,43.525625 C15.77125,57.619375 31.370625,82.67875 59.420625,100.705 C52.573125,77.45375 32.65625,52.0025 8.70375,43.525625 Z M156.29625,43.525625 C132.350625,52.009375 112.43375,77.45375 105.58625,100.705 C133.63625,82.67875 149.22875,57.619375 156.29625,43.525625 Z M158.125,27.5 L103.18,27.5 C103.74375,42.47375 108.50125,53.735 118.48375,63.146875 C129.195,50.31125 142.979375,39.950625 158.125,35.75 L158.125,27.5 Z M6.875,27.5 L6.875,35.75 C22.020625,39.950625 35.811875,50.304375 46.51625,63.14 C56.49875,53.735 61.25625,42.47375 61.82,27.5 L6.875,27.5 Z M158.125,20.625 L158.125,6.875 L6.875,6.875 L6.875,20.625 L158.125,20.625 Z" id="Shape"></path>
            </g>
        </g>
    </g>
</svg>