<?xml version="1.0" encoding="UTF-8"?>
<svg width="32px" height="32px" viewBox="0 0 32 32" version="1.1" xmlns="http://www.w3.org/2000/svg" xmlns:xlink="http://www.w3.org/1999/xlink">
    <defs>
        <path d="M13.8667888,7.46490892 C13.2772672,6.84503036 12.1571762,6.84503036 11.5087024,7.46490892 C10.8602287,8.14677533 10.8012765,9.07659316 11.5087024,9.94442314 L16.9912532,16.019233 L11.5087024,22.032055 C10.8012765,22.899885 10.8602287,23.8297028 11.5087024,24.5115692 C12.1571762,25.1934356 13.2772672,25.1314478 13.8667888,24.5115692 C14.5152625,23.8297028 20.5283827,17.1970023 20.5283827,17.1970023 C20.8231435,16.887063 21,16.453148 21,16.019233 C21,15.5233302 20.8231435,15.0894152 20.5283827,14.7794759 C20.5283827,14.7794759 14.5152625,8.14677533 13.8667888,7.46490892 Z" id="path-1"></path>
    </defs>
    <g id="Symbols" stroke="none" stroke-width="1" fill="none" fill-rule="evenodd">
        <g id="icon/solid/divider">
            <mask id="mask-2" fill="white">
                <use xlink:href="#path-1"></use>
            </mask>
            <use id="divider" fill="#000000" xlink:href="#path-1"></use>
            <g id="color/solid/primary" mask="url(#mask-2)" fill="#4990E2">
                <g transform="translate(-24.000000, -24.000000)" id="color">
                    <rect x="0" y="0" width="80" height="80"></rect>
                </g>
            </g>
        </g>
    </g>
</svg>