<?xml version="1.0" encoding="UTF-8"?>
<svg width="32px" height="32px" viewBox="0 0 32 32" version="1.1" xmlns="http://www.w3.org/2000/svg" xmlns:xlink="http://www.w3.org/1999/xlink">
    <defs>
        <path d="M23.8583164,21.5646258 L16.9073588,9.52328722 C16.5044522,8.82557093 15.4955478,8.82557093 15.0926412,9.52328722 L8.14168359,21.5646258 C7.73877699,22.2623421 8.24322915,23.1369442 9.04904234,23.1369442 L22.9509577,23.1369442 C23.7567708,23.1369442 24.261223,22.2623421 23.8583164,21.5646258 L23.8583164,21.5646258 Z M16.009827,13.2313382 C16.4553172,13.2313382 16.8156402,13.6014881 16.8025375,14.0469783 L16.671511,18.6198044 C16.661684,18.9801274 16.3668743,19.2651101 16.0065513,19.2651101 C15.6462284,19.2651101 15.3514187,18.9768517 15.3415917,18.6198044 L15.2138408,14.0469783 C15.2040138,13.6014881 15.5610611,13.2313382 16.009827,13.2313382 L16.009827,13.2313382 Z M16,21.5023882 C15.5446828,21.5023882 15.1745328,21.1322382 15.1745328,20.676921 C15.1745328,20.2216038 15.5446828,19.8514538 16,19.8514538 C16.4553172,19.8514538 16.8254672,20.2216038 16.8254672,20.676921 C16.8254672,21.1322382 16.4553172,21.5023882 16,21.5023882 L16,21.5023882 Z" id="path-1"></path>
    </defs>
    <g id="Symbols" stroke="none" stroke-width="1" fill="none" fill-rule="evenodd">
        <g id="icon/solid/error">
            <mask id="mask-2" fill="white">
                <use xlink:href="#path-1"></use>
            </mask>
            <use id="error" fill="#000000" xlink:href="#path-1"></use>
            <g id="color/solid/primary" mask="url(#mask-2)" fill="#4990E2">
                <g transform="translate(-23.000000, -23.000000)" id="color">
                    <rect x="0" y="0" width="80" height="80"></rect>
                </g>
            </g>
        </g>
    </g>
</svg>