<?xml version="1.0" encoding="utf-8"?>
<!-- Generator: Adobe Illustrator 23.0.0, SVG Export Plug-In . SVG Version: 6.00 Build 0)  -->
<svg version="1.1" id="Layer_1" xmlns="http://www.w3.org/2000/svg" xmlns:xlink="http://www.w3.org/1999/xlink" x="0px" y="0px"
	 viewBox="0 0 32 32" style="enable-background:new 0 0 32 32;" xml:space="preserve">
<g>
	<path d="M20,7c1.6,0,3.1,0.6,4.2,1.8C25.4,9.9,26,11.4,26,13c0,1.6-0.6,3.1-1.8,4.2l-7.2,7.2c-0.3,0.3-0.7,0.4-1.1,0.4
		c-0.4,0-0.8-0.2-1.1-0.4l-7.2-7.2C6.6,16.1,6,14.6,6,13c0-1.6,0.6-3.1,1.8-4.2C8.9,7.6,10.4,7,12,7c1.5,0,2.9,0.6,4,1.6
		C17.1,7.6,18.5,7,20,7z M22.8,15.8c0.8-0.8,1.2-1.8,1.2-2.8c0-1.1-0.4-2.1-1.2-2.8C22.1,9.4,21.1,9,20,9C19,9,18,9.4,17.2,10.2
		L16,11.4l-1.2-1.2C14,9.4,13,9,12,9c-1.1,0-2.1,0.4-2.8,1.2C8.4,10.9,8,11.9,8,13C8,14,8.4,15,9.2,15.8l6.8,6.8L22.8,15.8z
		 M15.7,23c0.1-0.1,0.2-0.1,0.3-0.1c0.1,0,0.3,0.1,0.3,0.1L16,22.6L15.7,23z"/>
</g>
</svg>
