<?xml version="1.0" encoding="UTF-8"?>
<svg width="32px" height="32px" viewBox="0 0 32 32" version="1.1" xmlns="http://www.w3.org/2000/svg" xmlns:xlink="http://www.w3.org/1999/xlink">
    <defs>
        <path d="M20.0239465,7.01144793 C21.6218907,7.01144793 23.1237874,7.63263242 24.2531989,8.76204392 C25.3834786,9.89232355 26.0045557,11.399278 25.999979,12.9951124 C25.999979,14.5920567 25.3756834,16.0980644 24.2442483,17.2294971 L17.0639004,24.3831355 C16.777138,24.669898 16.3897534,24.8248518 15.994276,24.8248518 C15.5964827,24.8248518 15.2093924,24.6640604 14.9246515,24.3793196 L7.75824884,17.2129169 C6.62641337,16.0810815 6.0000209,14.5782204 6.000025,12.9865298 C5.99544905,11.3895215 6.61913634,9.88207654 7.75061689,8.75059599 C8.87709309,7.62411979 10.3831737,7 11.9760534,7 C13.4765907,7 14.9012392,7.55462663 16.0061086,8.56082807 C17.1087422,7.56047759 18.5263578,7.01144793 20.0239465,7.01144793 Z" id="path-1"></path>
    </defs>
    <g id="Symbols" stroke="none" stroke-width="1" fill="none" fill-rule="evenodd">
        <g id="icon/solid/heart-solid">
            <mask id="mask-2" fill="white">
                <use xlink:href="#path-1"></use>
            </mask>
            <use id="heart" fill="#000000" fill-rule="nonzero" xlink:href="#path-1"></use>
            <g id="color/solid/primary" mask="url(#mask-2)" fill="#4990E2">
                <g transform="translate(-22.000000, -25.000000)" id="color">
                    <rect x="0" y="0" width="80" height="80"></rect>
                </g>
            </g>
        </g>
    </g>
</svg>