<?xml version="1.0" encoding="utf-8"?>
<!-- Generator: Adobe Illustrator 23.0.0, SVG Export Plug-In . SVG Version: 6.00 Build 0)  -->
<svg version="1.1" id="Layer_1" xmlns="http://www.w3.org/2000/svg" xmlns:xlink="http://www.w3.org/1999/xlink" x="0px" y="0px"
	 viewBox="0 0 32 32" style="enable-background:new 0 0 32 32;" xml:space="preserve">
<path d="M20,7c1.6,0,3.1,0.6,4.2,1.8C25.4,9.9,26,11.4,26,13c0,1.6-0.6,3.1-1.8,4.2l-7.2,7.2c-0.3,0.3-0.7,0.4-1.1,0.4
	c-0.4,0-0.8-0.2-1.1-0.4l-7.2-7.2C6.6,16.1,6,14.6,6,13c0-1.6,0.6-3.1,1.8-4.2C8.9,7.6,10.4,7,12,7c1.5,0,2.9,0.6,4,1.6
	C17.1,7.6,18.5,7,20,7z"/>
</svg>
