<?xml version="1.0" encoding="utf-8"?>
<!-- Generator: Adobe Illustrator 23.0.0, SVG Export Plug-In . SVG Version: 6.00 Build 0)  -->
<svg version="1.1" id="Layer_1" xmlns="http://www.w3.org/2000/svg" xmlns:xlink="http://www.w3.org/1999/xlink" x="0px" y="0px"
	 viewBox="0 0 32 32" style="enable-background:new 0 0 32 32;" xml:space="preserve">
<g>
	<path d="M16,11.5c-0.6,0-1.1,0.5-1.1,1.1s0.5,1.1,1.1,1.1s1.1-0.5,1.1-1.1S16.6,11.5,16,11.5z M16,14.9c-0.6,0-1.1,0.5-1.1,1.1v3.4
		c0,0.6,0.5,1.1,1.1,1.1s1.1-0.5,1.1-1.1V16C17.1,15.4,16.6,14.9,16,14.9z M16,7c-5,0-9,4-9,9s4,9,9,9s9-4,9-9S21,7,16,7z M16,23.3
		c-4,0-7.3-3.3-7.3-7.3S12,8.7,16,8.7c4,0,7.3,3.3,7.3,7.3S20,23.3,16,23.3z"/>
</g>
</svg>
