<?xml version="1.0" encoding="UTF-8"?>
<svg width="32px" height="32px" viewBox="0 0 32 32" version="1.1" xmlns="http://www.w3.org/2000/svg" xmlns:xlink="http://www.w3.org/1999/xlink">
    <defs>
        <path d="M16,11.5 C15.379,11.5 14.875,12.004 14.875,12.625 C14.875,13.246 15.379,13.75 16,13.75 C16.621,13.75 17.125,13.2465588 17.125,12.625 C17.125,12.0034412 16.6215588,11.5 16,11.5 Z M16,14.875 C15.379,14.875 14.875,15.3784412 14.875,16 L14.875,19.375 C14.875,19.996 15.379,20.5 16,20.5 C16.621,20.5 17.125,19.996 17.125,19.375 L17.125,16 C17.125,15.379 16.6215588,14.875 16,14.875 Z M16,7 C11.0376176,7 7,11.0376176 7,16 C7,20.9623824 11.0376176,25 16,25 C20.9623824,25 25,20.9623824 25,16 C25,11.0376176 20.9623824,7 16,7 Z M16,23.3125 C11.9674412,23.3125 8.6875,20.032 8.6875,16 C8.6875,11.968 11.9674412,8.6875 16,8.6875 C20.032,8.6875 23.3125,11.968 23.3125,16 C23.3125,20.032 20.032,23.3125 16,23.3125 Z" id="path-1"></path>
    </defs>
    <g id="Symbols" stroke="none" stroke-width="1" fill="none" fill-rule="evenodd">
        <g id="icon/solid/info">
            <mask id="mask-2" fill="white">
                <use xlink:href="#path-1"></use>
            </mask>
            <use id="info" fill="#000000" fill-rule="nonzero" xlink:href="#path-1"></use>
            <g id="color/solid/primary" mask="url(#mask-2)" fill="#4990E2">
                <g transform="translate(-22.000000, -25.000000)" id="color">
                    <rect x="0" y="0" width="80" height="80"></rect>
                </g>
            </g>
        </g>
    </g>
</svg>