<?xml version="1.0" encoding="UTF-8"?>
<svg width="32px" height="32px" viewBox="0 0 32 32" version="1.1" xmlns="http://www.w3.org/2000/svg" xmlns:xlink="http://www.w3.org/1999/xlink">
    <defs>
        <path d="M11.1206879,20.2983508 C11.5811845,20.2983508 11.9771435,20.4625239 12.3089339,20.7900091 C12.6406014,21.1183554 12.8063736,21.5159954 12.8063736,21.9843645 C12.8063736,22.4527745 12.6405604,22.8511116 12.3089339,23.1787608 C11.9771845,23.506533 11.5811845,23.6704191 11.1206879,23.6704191 C10.6524419,23.6704191 10.2544328,23.506533 9.92649658,23.1787608 C9.59868337,22.8507016 9.43483827,22.4527745 9.43483827,21.9843645 C9.43483827,21.5159954 9.59880638,21.1180683 9.92649658,20.7900091 C10.2543098,20.4622369 10.6523189,20.2983508 11.1206879,20.2983508 Z M10.7460911,16.7397631 C10.7460911,17.2547517 10.5627699,17.6957312 10.1959226,18.0624146 C9.82911617,18.429344 9.38809567,18.6127472 8.87302506,18.6127472 C8.35791344,18.6127472 7.91697494,18.429344 7.55012756,18.0624146 C7.18332118,17.6954852 7,17.2547517 7,16.7397631 C7,16.2245285 7.18336219,15.78359 7.55012756,15.4167426 C7.91697494,15.0499772 8.35791344,14.866574 8.87302506,14.866574 C9.38809567,14.866574 9.82911617,15.0499362 10.1959226,15.4167426 C10.5627699,15.783877 10.7460911,16.2246925 10.7460911,16.7397631 Z M21.6096036,12.4319818 C21.3519863,12.4319818 21.1313941,12.3403007 20.9479909,12.1568155 C20.7647107,11.9733303 20.6729886,11.7529021 20.6729886,11.4952847 C20.6729886,11.2376674 20.7647107,11.0173212 20.9479909,10.833918 C21.1313941,10.6505968 21.3519863,10.5587517 21.6096036,10.5587517 C21.8669339,10.5587517 22.0876492,10.6504328 22.2709294,10.833918 C22.4543326,11.0172802 22.5462187,11.2376674 22.5462187,11.4952847 C22.5462187,11.752779 22.4543326,11.9733303 22.2709294,12.1568155 C22.0877722,12.3401367 21.8669339,12.4319818 21.6096036,12.4319818 Z M11.1208109,9.43504328 C11.6904966,9.43504328 12.1763326,9.63603645 12.5781959,10.0378998 C12.9800592,10.4397631 13.1810524,10.9255991 13.1810524,11.4952847 C13.1810524,12.0650524 12.9800592,12.5508064 12.5781959,12.9528337 C12.1763326,13.354697 11.6904966,13.5557722 11.1208109,13.5557722 C10.5511253,13.5557722 10.0653303,13.35482 9.66326196,12.9528337 C9.26127563,12.5508064 9.06040547,12.0651754 9.06040547,11.4952847 C9.06040547,10.9255991 9.26127563,10.4397631 9.66326196,10.0378998 C10.0652073,9.63603645 10.5510023,9.43504328 11.1208109,9.43504328 Z M24.6532027,15.9436219 C24.8719909,16.162287 24.9808519,16.4277358 24.9808519,16.7399271 C24.9808519,17.0519544 24.8718269,17.3174852 24.6532027,17.5357813 C24.4349066,17.7544055 24.1694169,17.8635535 23.8573485,17.8635535 C23.5449932,17.8635535 23.2797904,17.7544055 23.0612073,17.5357813 C22.8428702,17.3177312 22.7337221,17.0519544 22.7337221,16.7399271 C22.7337221,16.4275718 22.8428702,16.162164 23.0612073,15.9436219 C23.2796674,15.7250797 23.5449932,15.6159317 23.8573485,15.6159317 C24.1694169,15.6159317 24.4347426,15.7250797 24.6532027,15.9436219 Z M21.6096036,20.6731526 C21.9685376,20.6731526 22.2768337,20.8017768 22.53441,21.0594351 C22.7920273,21.3170934 22.9207335,21.6251845 22.9207335,21.9844055 C22.9207335,22.3435034 22.7920273,22.6517995 22.53441,22.9094169 C22.2767927,23.1667472 21.9685376,23.2955353 21.6096036,23.2955353 C21.2504237,23.2955353 20.9421276,23.1669932 20.6845103,22.9094169 C20.42718,22.6517585 20.2983508,22.3433394 20.2983508,21.9844055 C20.2983508,21.6251845 20.42718,21.3167654 20.6845103,21.0594351 C20.9421276,20.8018178 21.2503827,20.6731526 21.6096036,20.6731526 Z M16.3651253,22.7332711 C16.7787973,22.7332711 17.1318269,22.8798952 17.4245421,23.1726105 C17.7172574,23.4653257 17.8635945,23.8183144 17.8635945,24.2319863 C17.8635945,24.6456583 17.7172574,24.9986879 17.4245421,25.2913622 C17.1318269,25.5840774 16.7787973,25.7305786 16.3651253,25.7305786 C15.9513303,25.7305786 15.5983007,25.5840774 15.3054624,25.2913622 C15.0127472,24.9986879 14.866533,24.6456583 14.866533,24.2319863 C14.866533,23.8183144 15.0129112,23.4653257 15.3054624,23.1726105 C15.5983007,22.8798952 15.9514943,22.7332711 16.3651253,22.7332711 Z M16.3651253,7 C16.989672,7 17.5202415,7.21854214 17.9571617,7.65546241 C18.394082,8.09271071 18.6125831,8.62340319 18.6125831,9.24766287 C18.6125831,9.87200456 18.394082,10.402779 17.9571617,10.8396993 C17.5202415,11.2767836 16.989672,11.4952027 16.3651253,11.4952027 C15.7407426,11.4952027 15.2099271,11.2766606 14.7728428,10.8396993 C14.3357995,10.402574 14.1173804,9.87200456 14.1173804,9.24766287 C14.1173804,8.62336219 14.3358815,8.0925467 14.7728428,7.65546241 C15.2099271,7.21841913 15.7408656,7 16.3651253,7 Z" id="path-1"></path>
    </defs>
    <g id="Symbols" stroke="none" stroke-width="1" fill="none" fill-rule="evenodd">
        <g id="icon/solid/loading">
            <mask id="mask-2" fill="white">
                <use xlink:href="#path-1"></use>
            </mask>
            <use id="spinner" fill="#000000" fill-rule="nonzero" xlink:href="#path-1"></use>
            <g id="color/solid/primary" mask="url(#mask-2)" fill="#4990E2">
                <g transform="translate(-22.000000, -25.000000)" id="color">
                    <rect x="0" y="0" width="80" height="80"></rect>
                </g>
            </g>
        </g>
    </g>
</svg>