<?xml version="1.0" encoding="utf-8"?>
<!-- Generator: Adobe Illustrator 23.0.0, SVG Export Plug-In . SVG Version: 6.00 Build 0)  -->
<svg version="1.1" id="Layer_1" xmlns="http://www.w3.org/2000/svg" xmlns:xlink="http://www.w3.org/1999/xlink" x="0px" y="0px"
	 viewBox="0 0 32 32" style="enable-background:new 0 0 32 32;" xml:space="preserve">
<style type="text/css">
	.st0{fill-rule:evenodd;clip-rule:evenodd;}
</style>
<g>
	<path class="st0" d="M9.7,9.7L14.4,21l1.2-4.8c0.1-0.3,0.4-0.6,0.7-0.7l4.8-1.2L9.7,9.7z M14.6,25c-0.4,0-0.7-0.2-0.9-0.6L7.1,8.3
		C6.9,8,7,7.5,7.3,7.3C7.5,7,8,6.9,8.3,7.1l16.1,6.6c0.4,0.2,0.6,0.5,0.6,0.9c0,0.4-0.3,0.8-0.7,0.9l-7,1.8l-1.8,7
		C15.4,24.7,15.1,25,14.6,25C14.6,25,14.6,25,14.6,25L14.6,25z"/>
</g>
</svg>
