<?xml version="1.0" encoding="UTF-8"?>
<svg width="32px" height="32px" viewBox="0 0 32 32" version="1.1" xmlns="http://www.w3.org/2000/svg" xmlns:xlink="http://www.w3.org/1999/xlink">
    <defs>
        <path d="M9.68908185,9.68886845 L14.3586374,21.0288117 L15.5542104,16.2436778 C15.6394731,15.9045216 15.904735,15.6392597 16.2438912,15.553997 L21.0290251,14.358424 L9.68908185,9.68886845 Z M14.5784258,25.0001603 C14.1975856,25.0001603 13.8499032,24.7699509 13.7030618,24.4127948 L7.071516,8.3076122 C6.92562199,7.95519291 7.00709527,7.54782652 7.27804128,7.27782787 C7.54803993,7.0059345 7.95540631,6.92635595 8.3078256,7.07130259 L24.4130082,13.7028484 C24.7919537,13.858216 25.0268999,14.2400036 24.9975316,14.64737 C24.967216,15.0556837 24.6792174,15.3986294 24.282272,15.4981026 L17.2547282,17.2545148 L15.498316,24.283006 C15.3988428,24.679004 15.0558971,24.9670026 14.6475834,24.9973182 C14.6248466,24.9982656 14.6011626,25.0001603 14.5784258,25.0001603 L14.5784258,25.0001603 Z" id="path-1"></path>
    </defs>
    <g id="Symbols" stroke="none" stroke-width="1" fill="none" fill-rule="evenodd">
        <g id="icon/solid/location">
            <mask id="mask-2" fill="white">
                <use xlink:href="#path-1"></use>
            </mask>
            <use id="location" fill="#000000" xlink:href="#path-1"></use>
            <g id="color/solid/primary" mask="url(#mask-2)" fill="#4990E2">
                <g transform="translate(-22.000000, -25.000000)" id="color">
                    <rect x="0" y="0" width="80" height="80"></rect>
                </g>
            </g>
        </g>
    </g>
</svg>