<?xml version="1.0" encoding="UTF-8"?>
<svg width="32px" height="32px" viewBox="0 0 32 32" version="1.1" xmlns="http://www.w3.org/2000/svg" xmlns:xlink="http://www.w3.org/1999/xlink">
    <defs>
        <path d="M19.902498,17.7589746 C19.7677628,17.9934868 19.5230545,18.1231239 19.2710632,18.1231239 C19.1476166,18.1231239 19.0223492,18.0918071 18.9076422,18.0255319 L16.7293013,16.7673962 L16.7293013,19.2836676 C16.7293013,19.6856884 16.4030235,20.0119662 16.0010027,20.0119662 C15.5989819,20.0119662 15.2727042,19.6856884 15.2727042,19.2836676 L15.2727042,16.767032 L13.0932708,18.0255319 C12.9785638,18.0918071 12.8532964,18.1231239 12.7298498,18.1231239 C12.4782227,18.1231239 12.2331502,17.9934868 12.098415,17.7589746 C11.8974046,17.4104838 12.0164814,16.9651292 12.3649722,16.7648471 L14.5436773,15.5063472 L12.364244,14.2478474 C12.0157531,14.0464728 11.8966763,13.6018465 12.0976867,13.2533557 C12.2986971,12.9048648 12.7444158,12.7854239 13.0925425,12.9867984 L15.2716117,14.2449342 L15.2716117,11.7282985 C15.2716117,11.3262777 15.5978895,11 15.9999103,11 C16.4019311,11 16.7282088,11.3262777 16.7282088,11.7282985 L16.7282088,14.24457 L18.9065498,12.9864343 C19.2546765,12.7850597 19.7014876,12.9045007 19.9014056,13.2529915 C20.102416,13.6014824 19.9833392,14.046837 19.6348483,14.2474832 L17.4568715,15.5059831 L19.6352125,16.7641188 C19.9837033,16.9651292 20.1035084,17.4104838 19.902498,17.7589746 L19.902498,17.7589746 Z" id="path-1"></path>
    </defs>
    <g id="Symbols" stroke="none" stroke-width="1" fill="none" fill-rule="evenodd">
        <g id="icon/solid/required">
            <mask id="mask-2" fill="white">
                <use xlink:href="#path-1"></use>
            </mask>
            <use id="required" fill="#000000" xlink:href="#path-1"></use>
            <g id="color/solid/primary" mask="url(#mask-2)" fill="#4990E2">
                <g transform="translate(-21.000000, -28.000000)" id="color">
                    <rect x="0" y="0" width="80" height="80"></rect>
                </g>
            </g>
        </g>
    </g>
</svg>