<?xml version="1.0" encoding="utf-8"?>
<!-- Generator: Adobe Illustrator 23.0.0, SVG Export Plug-In . SVG Version: 6.00 Build 0)  -->
<svg version="1.1" id="Layer_1" xmlns="http://www.w3.org/2000/svg" xmlns:xlink="http://www.w3.org/1999/xlink" x="0px" y="0px"
	 viewBox="0 0 32 32" style="enable-background:new 0 0 32 32;" xml:space="preserve">
<style type="text/css">
	.st0{fill-rule:evenodd;clip-rule:evenodd;}
</style>
<g>
	<path class="st0" d="M19.9,17.8c-0.1,0.2-0.4,0.4-0.6,0.4c-0.1,0-0.2,0-0.4-0.1l-2.2-1.3v2.5c0,0.4-0.3,0.7-0.7,0.7
		c-0.4,0-0.7-0.3-0.7-0.7v-2.5L13.1,18c-0.1,0.1-0.2,0.1-0.4,0.1c-0.3,0-0.5-0.1-0.6-0.4c-0.2-0.3-0.1-0.8,0.3-1l2.2-1.3l-2.2-1.3
		c-0.3-0.2-0.5-0.6-0.3-1s0.6-0.5,1-0.3l2.2,1.3v-2.5c0-0.4,0.3-0.7,0.7-0.7c0.4,0,0.7,0.3,0.7,0.7v2.5l2.2-1.3
		c0.3-0.2,0.8-0.1,1,0.3c0.2,0.3,0.1,0.8-0.3,1l-2.2,1.3l2.2,1.3C20,17,20.1,17.4,19.9,17.8L19.9,17.8z"/>
</g>
</svg>
