<?xml version="1.0" encoding="utf-8"?>
<!-- Generator: Adobe Illustrator 23.0.0, SVG Export Plug-In . SVG Version: 6.00 Build 0)  -->
<svg version="1.1" id="Layer_1" xmlns="http://www.w3.org/2000/svg" xmlns:xlink="http://www.w3.org/1999/xlink" x="0px" y="0px"
	 viewBox="0 0 32 32" style="enable-background:new 0 0 32 32;" xml:space="preserve">
<g>
	<path d="M24.4,23.4l-4.4-4.5c1.1-1.3,1.7-3,1.7-4.7c0-4-3.3-7.3-7.4-7.3S7,10.3,7,14.3s3.3,7.3,7.4,7.3c1.5,0,3-0.5,4.2-1.3
		l4.4,4.5c0.2,0.2,0.4,0.3,0.7,0.3c0.3,0,0.5-0.1,0.7-0.3C24.8,24.4,24.8,23.8,24.4,23.4z M14.4,8.9c3,0,5.5,2.4,5.5,5.4
		s-2.5,5.4-5.5,5.4s-5.5-2.4-5.5-5.4S11.4,8.9,14.4,8.9z"/>
</g>
</svg>
