<?xml version="1.0" encoding="UTF-8"?>
<svg width="32px" height="32px" viewBox="0 0 32 32" version="1.1" xmlns="http://www.w3.org/2000/svg" xmlns:xlink="http://www.w3.org/1999/xlink">
    <defs>
        <path d="M24.4092143,23.3853684 L20.0512857,18.9324211 C21.1717857,17.6237895 21.7857143,15.9772632 21.7857143,14.2631579 C21.7857143,10.2583158 18.4692143,7 14.3928571,7 C10.3165,7 7,10.2583158 7,14.2631579 C7,18.268 10.3165,21.5263158 14.3928571,21.5263158 C15.9231786,21.5263158 17.3815,21.0728421 18.6283214,20.212 L23.0193571,24.6987368 C23.2028929,24.886 23.44975,24.9892632 23.7142857,24.9892632 C23.9646786,24.9892632 24.2022143,24.8954737 24.3825357,24.7249474 C24.7656786,24.3627368 24.7778929,23.7621053 24.4092143,23.3853684 Z M14.3928571,8.89473684 C17.4059286,8.89473684 19.8571429,11.3029474 19.8571429,14.2631579 C19.8571429,17.2233684 17.4059286,19.6315789 14.3928571,19.6315789 C11.3797857,19.6315789 8.92857143,17.2233684 8.92857143,14.2631579 C8.92857143,11.3029474 11.3797857,8.89473684 14.3928571,8.89473684 Z" id="path-1"></path>
    </defs>
    <g id="Symbols" stroke="none" stroke-width="1" fill="none" fill-rule="evenodd">
        <g id="icon/solid/search">
            <mask id="mask-2" fill="white">
                <use xlink:href="#path-1"></use>
            </mask>
            <use id="search" fill="#000000" fill-rule="nonzero" xlink:href="#path-1"></use>
            <g id="color/solid/primary" mask="url(#mask-2)" fill="#4990E2">
                <g transform="translate(-22.000000, -25.000000)" id="color">
                    <rect x="0" y="0" width="80" height="80"></rect>
                </g>
            </g>
        </g>
    </g>
</svg>