<?xml version="1.0" encoding="UTF-8"?>
<svg width="32px" height="32px" viewBox="0 0 32 32" version="1.1" xmlns="http://www.w3.org/2000/svg" xmlns:xlink="http://www.w3.org/1999/xlink">
    <defs>
        <path d="M24.7963047,13.3298281 L19.6571289,8.19075781 C19.5299687,8.06359766 19.3794648,8 19.2054766,8 C19.0314883,8 18.8808789,8.06359766 18.7538242,8.19075781 C18.6266641,8.31798828 18.5629961,8.4685625 18.5629961,8.64251562 L18.5629961,11.2120508 L16.3146484,11.2120508 C11.5433828,11.2120508 8.61599219,12.5604336 7.53180859,15.2571289 C7.17725781,16.1536836 7,17.2679609 7,18.5995742 C7,19.7103008 7.42493359,21.219207 8.27473047,23.1263633 C8.29476953,23.1732969 8.32978516,23.253418 8.38005859,23.3671484 C8.43029687,23.4808086 8.47540234,23.5811797 8.51555078,23.6682617 C8.55583984,23.7551328 8.59936328,23.82875 8.64615625,23.8889023 C8.72638281,24.0027031 8.82010937,24.0597266 8.92719531,24.0597266 C9.02756641,24.0597266 9.10621094,24.026293 9.16312891,23.9593906 C9.21990625,23.8925234 9.24834766,23.8087812 9.24834766,23.7086563 C9.24834766,23.6482578 9.23998047,23.5597344 9.22321094,23.4425586 C9.20647656,23.3253828 9.19807422,23.2469492 9.19807422,23.2067305 C9.16457031,22.7518789 9.14783594,22.3400234 9.14783594,21.9722539 C9.14783594,21.2964453 9.20647656,20.6908437 9.32347656,20.1555547 C9.44065234,19.6201602 9.60289844,19.1568711 9.81039062,18.7653711 C10.0178477,18.3737305 10.2854219,18.0360547 10.6133945,17.7516406 C10.9412266,17.4672266 11.2941602,17.2347734 11.6722305,17.0540703 C12.0503711,16.873332 12.4953437,16.731125 13.0072539,16.6274492 C13.5191289,16.5237383 14.0343437,16.4517734 14.5530039,16.4115898 C15.0716641,16.3714062 15.6588437,16.3514375 16.3146484,16.3514375 L18.5629961,16.3514375 L18.5629961,18.921043 C18.5629961,19.0949961 18.6265234,19.2456055 18.7535781,19.3726953 C18.8808437,19.4997148 19.0313477,19.5633828 19.2052305,19.5633828 C19.3791836,19.5633828 19.529793,19.4997148 19.6571289,19.3726953 L24.7961992,14.2334492 C24.9233594,14.1062891 24.9868867,13.9557852 24.9868867,13.7817969 C24.9868516,13.6078438 24.9233594,13.4572344 24.7963047,13.3298281 Z" id="path-1"></path>
    </defs>
    <g id="Symbols" stroke="none" stroke-width="1" fill="none" fill-rule="evenodd">
        <g id="icon/solid/share">
            <mask id="mask-2" fill="white">
                <use xlink:href="#path-1"></use>
            </mask>
            <use id="share" fill="#000000" fill-rule="nonzero" xlink:href="#path-1"></use>
            <g id="color/solid/primary" mask="url(#mask-2)" fill="#4990E2">
                <g transform="translate(-22.000000, -25.000000)" id="color">
                    <rect x="0" y="0" width="80" height="80"></rect>
                </g>
            </g>
        </g>
    </g>
</svg>