<?xml version="1.0" encoding="utf-8"?>
<!-- Generator: Adobe Illustrator 23.0.0, SVG Export Plug-In . SVG Version: 6.00 Build 0)  -->
<svg version="1.1" id="Layer_1" xmlns="http://www.w3.org/2000/svg" xmlns:xlink="http://www.w3.org/1999/xlink" x="0px" y="0px"
	 viewBox="0 0 32 32" style="enable-background:new 0 0 32 32;" xml:space="preserve">
<g>
	<path d="M24.8,13.3l-5.1-5.1C19.5,8.1,19.4,8,19.2,8s-0.3,0.1-0.5,0.2c-0.1,0.1-0.2,0.3-0.2,0.5v2.6h-2.2c-4.8,0-7.7,1.3-8.8,4
		c-0.4,0.9-0.5,2-0.5,3.3c0,1.1,0.4,2.6,1.3,4.5c0,0,0.1,0.1,0.1,0.2c0.1,0.1,0.1,0.2,0.1,0.3c0,0.1,0.1,0.2,0.1,0.2
		c0.1,0.1,0.2,0.2,0.3,0.2c0.1,0,0.2,0,0.2-0.1c0.1-0.1,0.1-0.2,0.1-0.3c0-0.1,0-0.1,0-0.3c0-0.1,0-0.2,0-0.2c0-0.5-0.1-0.9-0.1-1.2
		c0-0.7,0.1-1.3,0.2-1.8c0.1-0.5,0.3-1,0.5-1.4c0.2-0.4,0.5-0.7,0.8-1c0.3-0.3,0.7-0.5,1.1-0.7c0.4-0.2,0.8-0.3,1.3-0.4
		c0.5-0.1,1-0.2,1.5-0.2c0.5,0,1.1-0.1,1.8-0.1h2.2v2.6c0,0.2,0.1,0.3,0.2,0.5c0.1,0.1,0.3,0.2,0.5,0.2c0.2,0,0.3-0.1,0.5-0.2
		l5.1-5.1c0.1-0.1,0.2-0.3,0.2-0.5C25,13.6,24.9,13.5,24.8,13.3z"/>
</g>
</svg>
