<?xml version="1.0" encoding="UTF-8"?>
<svg width="32px" height="32px" viewBox="0 0 32 32" version="1.1" xmlns="http://www.w3.org/2000/svg" xmlns:xlink="http://www.w3.org/1999/xlink">
    <defs>
        <path d="M23,9 C23.551,9 24,9.448 24,10 C24,10.552 23.551,11 23,11 C22.449,11 22,10.552 22,10 C22,9.448 22.449,9 23,9 M23,13 C21.698,13 20.599,12.162 20.185,11 L6,11 L6,9 L20.185,9 C20.599,7.838 21.698,7 23,7 C24.654,7 26,8.346 26,10 C26,11.654 24.654,13 23,13 Z M13,13 C14.302,13 15.401,13.838 15.815,15 L26,15 L26,17 L15.815,17 C15.401,18.162 14.302,19 13,19 C11.698,19 10.599,18.162 10.185,17 L6,17 L6,15 L10.185,15 C10.599,13.838 11.698,13 13,13 Z M13,17 C13.551,17 14,16.552 14,16 C14,15.448 13.551,15 13,15 C12.449,15 12,15.448 12,16 C12,16.552 12.449,17 13,17 Z M23,19 C24.654,19 26,20.346 26,22 C26,23.654 24.654,25 23,25 C21.698,25 20.599,24.162 20.185,23 L6,23 L6,21 L20.185,21 C20.599,19.838 21.698,19 23,19 Z M23,23 C23.551,23 24,22.552 24,22 C24,21.448 23.551,21 23,21 C22.449,21 22,21.448 22,22 C22,22.552 22.449,23 23,23 Z" id="path-1"></path>
    </defs>
    <g id="Symbols" stroke="none" stroke-width="1" fill="none" fill-rule="evenodd">
        <g id="icon/solid/sort">
            <mask id="mask-2" fill="white">
                <use xlink:href="#path-1"></use>
            </mask>
            <use id="sort" fill="#000000" xlink:href="#path-1"></use>
            <g id="color/solid/primary" mask="url(#mask-2)" fill="#4990E2">
                <g transform="translate(-22.000000, -25.000000)" id="color">
                    <rect x="0" y="0" width="80" height="80"></rect>
                </g>
            </g>
        </g>
    </g>
</svg>