<?xml version="1.0" encoding="utf-8"?>
<!-- Generator: Adobe Illustrator 23.0.0, SVG Export Plug-In . SVG Version: 6.00 Build 0)  -->
<svg version="1.1" id="Layer_1" xmlns="http://www.w3.org/2000/svg" xmlns:xlink="http://www.w3.org/1999/xlink" x="0px" y="0px"
	 viewBox="0 0 32 32" style="enable-background:new 0 0 32 32;" xml:space="preserve">
<style type="text/css">
	.st0{fill-rule:evenodd;clip-rule:evenodd;}
</style>
<g>
	<path class="st0" d="M23,9c0.6,0,1,0.4,1,1s-0.4,1-1,1s-1-0.4-1-1S22.4,9,23,9 M23,13c-1.3,0-2.4-0.8-2.8-2H6V9h14.2
		c0.4-1.2,1.5-2,2.8-2c1.7,0,3,1.3,3,3S24.7,13,23,13z M13,13c1.3,0,2.4,0.8,2.8,2H26v2H15.8c-0.4,1.2-1.5,2-2.8,2s-2.4-0.8-2.8-2H6
		v-2h4.2C10.6,13.8,11.7,13,13,13z M13,17c0.6,0,1-0.4,1-1s-0.4-1-1-1s-1,0.4-1,1S12.4,17,13,17z M23,19c1.7,0,3,1.3,3,3s-1.3,3-3,3
		c-1.3,0-2.4-0.8-2.8-2H6v-2h14.2C20.6,19.8,21.7,19,23,19z M23,23c0.6,0,1-0.4,1-1s-0.4-1-1-1s-1,0.4-1,1S22.4,23,23,23z"/>
</g>
</svg>
