<?xml version="1.0" encoding="UTF-8"?>
<svg width="32px" height="32px" viewBox="0 0 32 32" version="1.1" xmlns="http://www.w3.org/2000/svg" xmlns:xlink="http://www.w3.org/1999/xlink">
    <defs>
        <path d="M24.1312814,12.4860521 C24.8201,12.586106 25.3845531,13.0619708 25.5996716,13.7239938 C25.8147255,14.3859833 25.637809,15.102752 25.139391,15.5885899 L22.0616774,18.58855 L22.788224,22.8245933 C22.9059144,23.5105741 22.627756,24.1944494 22.0648102,24.6035175 C21.7511105,24.8316484 21.3783165,24.9525391 20.9968844,24.9525391 C20.703495,24.9525937 20.4132627,24.8810689 20.1491218,24.7422147 L16.3448778,22.742217 L12.5406477,24.7422273 C11.9245457,25.0660868 11.188059,25.0128582 10.6250422,24.6036846 C10.0619415,24.1945577 9.78381326,23.5107346 9.9014482,22.8246562 L10.6279992,18.5885873 L7.55034362,15.5886087 C7.05184413,15.1027438 6.87490071,14.3859268 7.09006642,13.7239239 C7.30522416,13.0619456 7.86963594,12.586103 8.55841042,12.4860555 L12.8116297,11.8680501 L14.7137223,8.01397877 C15.0217349,7.38978134 15.6487628,7 16.3448381,7 C17.0409135,7 17.6679413,7.38978134 17.9759399,8.01395027 L19.8780494,11.8680179 L24.1312814,12.4860521 Z" id="path-1"></path>
    </defs>
    <g id="Symbols" stroke="none" stroke-width="1" fill="none" fill-rule="evenodd">
        <g id="icon/solid/star-active">
            <mask id="mask-2" fill="white">
                <use xlink:href="#path-1"></use>
            </mask>
            <use id="Star" fill="#000000" fill-rule="nonzero" xlink:href="#path-1"></use>
            <g id="color/solid/primary" mask="url(#mask-2)" fill="#4990E2">
                <g transform="translate(-22.000000, -25.000000)" id="color">
                    <rect x="0" y="0" width="80" height="80"></rect>
                </g>
            </g>
        </g>
    </g>
</svg>