<?xml version="1.0" encoding="UTF-8"?>
<svg width="32px" height="32px" viewBox="0 0 32 32" version="1.1" xmlns="http://www.w3.org/2000/svg" xmlns:xlink="http://www.w3.org/1999/xlink">
    <defs>
        <path d="M24.2866492,12.4860521 C24.9754678,12.586106 25.5399209,13.0619708 25.7550394,13.7239938 C25.9700932,14.3859833 25.7931767,15.102752 25.2947588,15.5885899 L22.2170452,18.58855 L22.9435917,22.8245933 C23.0612822,23.5105741 22.7831238,24.1944494 22.220178,24.6035175 C21.9064782,24.8316484 21.5336843,24.9525391 21.1522522,24.9525391 C20.8588628,24.9525937 20.5686304,24.8810689 20.3044895,24.7422147 L16.5002455,22.742217 L12.6960155,24.7422273 C12.0799135,25.0660868 11.3434267,25.0128582 10.7804099,24.6036846 C10.2173093,24.1945577 9.93918102,23.5107346 10.056816,22.8246562 L10.7833669,18.5885873 L7.70571137,15.5886087 C7.20721188,15.1027438 7.03026846,14.3859268 7.24543417,13.7239239 C7.46059191,13.0619456 8.02500369,12.586103 8.71377817,12.4860555 L12.9669975,11.8680501 L14.86909,8.01397877 C15.1771027,7.38978134 15.8041305,7 16.5002059,7 C17.1962813,7 17.8233091,7.38978134 18.1313077,8.01395027 L20.0334172,11.8680179 L24.2866492,12.4860521 Z M20.1705657,18.8136626 C20.069343,18.223511 20.264899,17.621596 20.6936606,17.203715 L23.5175527,14.4510951 L19.6150755,13.8840238 C19.0225261,13.7979348 18.5104944,13.4259252 18.2455477,12.8889759 L16.5003025,9.35267814 L14.7550582,12.8889393 C14.4900522,13.4258997 13.9779931,13.7978971 13.3854667,13.8839829 L9.48301927,14.4510599 L12.3068827,17.2036518 C12.7357009,17.6215893 12.9312658,18.2235011 12.8300411,18.8136641 L12.1634249,22.7002907 L15.6539724,20.8652286 C15.9160799,20.7275129 16.206454,20.6563672 16.500284,20.6563672 C16.7941351,20.6563672 17.0844817,20.7275233 17.3467035,20.8653244 L20.8371834,22.7003675 L20.1705657,18.8136626 Z M22.9573569,7.83040748 C23.4165538,8.16398145 23.5183161,8.80662541 23.184745,9.26581827 L22.624699,10.0366092 C22.4290695,10.3058404 22.1192234,10.4601563 21.7929793,10.4601563 C21.5778692,10.4601563 21.3670892,10.3928366 21.1894292,10.2639053 C20.7302611,9.93035216 20.6284917,9.28768755 20.962073,8.82855673 L21.522105,8.0577852 C21.8556622,7.59868754 22.4981882,7.49690917 22.9573569,7.83040748 Z M11.8087237,10.2606618 C11.6312731,10.3896764 11.4203223,10.4570703 11.2050496,10.4570703 C10.8787088,10.4570703 10.5688439,10.3027449 10.3732449,10.0334355 L9.81319874,9.26264449 C9.47963476,8.80353748 9.58142465,8.16089169 10.0406817,7.82721875 C10.4998298,7.49388757 11.1423228,7.59565699 11.4758388,8.05465048 L12.0358779,8.82543173 C12.3694869,9.2845721 12.267714,9.92725873 11.8087237,10.2606618 Z M8.91127423,19.1821503 C9.08664222,19.7219489 8.79129183,20.3016385 8.25156586,20.4770076 L7.34552182,20.7714319 C7.24211198,20.8050568 7.13501898,20.8219531 7.02774495,20.8219531 C6.58598241,20.8219531 6.18908169,20.5382338 6.05058286,20.111756 C5.87519088,19.5720356 6.17054249,18.9922504 6.71029123,18.8168987 L7.61645809,18.5224345 C8.15620473,18.3470834 8.73589051,18.6424554 8.91127423,19.1821503 Z M16.5003231,24.694375 C17.0678717,24.694375 17.5279012,25.1544045 17.5279012,25.7219531 L17.5279012,26.6747656 C17.5279012,27.2422752 17.0678326,27.7023438 16.5003231,27.7023438 C15.9328135,27.7023438 15.472745,27.2422752 15.472745,26.6747656 L15.472745,25.7219531 C15.472745,25.1544436 15.9328135,24.694375 16.5003231,24.694375 Z M26.2899643,18.8176409 C26.8296864,18.9930087 27.1250514,19.5727035 26.9496952,20.1123898 C26.8111532,20.5389258 26.4142456,20.8226562 25.9724715,20.8226562 C25.8653075,20.8226562 25.7583629,20.8058348 25.6548225,20.772242 L24.7487237,20.4777999 C24.208938,20.3024361 23.9136092,19.7227428 24.0889685,19.1829709 C24.2643167,18.6432332 24.84407,18.3479098 25.3838315,18.5231877 L26.2899643,18.8176409 Z" id="path-1"></path>
    </defs>
    <g id="Symbols" stroke="none" stroke-width="1" fill="none" fill-rule="evenodd">
        <g id="icon/solid/star-action">
            <mask id="mask-2" fill="white">
                <use xlink:href="#path-1"></use>
            </mask>
            <use id="Star" fill="#000000" fill-rule="nonzero" xlink:href="#path-1"></use>
            <g id="color/solid/primary" mask="url(#mask-2)" fill="#4990E2">
                <g transform="translate(-22.000000, -25.000000)" id="color">
                    <rect x="0" y="0" width="80" height="80"></rect>
                </g>
            </g>
        </g>
    </g>
</svg>