<?xml version="1.0" encoding="utf-8"?>
<!-- Generator: Adobe Illustrator 23.0.0, SVG Export Plug-In . SVG Version: 6.00 Build 0)  -->
<svg version="1.1" id="Layer_1" xmlns="http://www.w3.org/2000/svg" xmlns:xlink="http://www.w3.org/1999/xlink" x="0px" y="0px"
	 viewBox="0 0 32 32" style="enable-background:new 0 0 32 32;" xml:space="preserve">
<g>
	<path d="M24.3,12.5c0.7,0.1,1.3,0.6,1.5,1.2c0.2,0.7,0,1.4-0.5,1.9l-3.1,3l0.7,4.2c0.1,0.7-0.2,1.4-0.7,1.8
		c-0.3,0.2-0.7,0.3-1.1,0.3c-0.3,0-0.6-0.1-0.8-0.2l-3.8-2l-3.8,2c-0.6,0.3-1.4,0.3-1.9-0.1c-0.6-0.4-0.8-1.1-0.7-1.8l0.7-4.2
		l-3.1-3c-0.5-0.5-0.7-1.2-0.5-1.9c0.2-0.7,0.8-1.1,1.5-1.2l4.3-0.6L14.9,8c0.3-0.6,0.9-1,1.6-1s1.3,0.4,1.6,1l1.9,3.9L24.3,12.5z
		 M20.2,18.8c-0.1-0.6,0.1-1.2,0.5-1.6l2.8-2.8l-3.9-0.6c-0.6-0.1-1.1-0.5-1.4-1l-1.7-3.5l-1.7,3.5c-0.3,0.5-0.8,0.9-1.4,1l-3.9,0.6
		l2.8,2.8c0.4,0.4,0.6,1,0.5,1.6l-0.7,3.9l3.5-1.8c0.3-0.1,0.6-0.2,0.8-0.2c0.3,0,0.6,0.1,0.8,0.2l3.5,1.8L20.2,18.8z M23,7.8
		c0.5,0.3,0.6,1,0.2,1.4L22.6,10c-0.2,0.3-0.5,0.4-0.8,0.4c-0.2,0-0.4-0.1-0.6-0.2c-0.5-0.3-0.6-1-0.2-1.4l0.6-0.8
		C21.9,7.6,22.5,7.5,23,7.8z M11.8,10.3c-0.2,0.1-0.4,0.2-0.6,0.2c-0.3,0-0.6-0.2-0.8-0.4L9.8,9.3C9.5,8.8,9.6,8.2,10,7.8
		c0.5-0.3,1.1-0.2,1.4,0.2L12,8.8C12.4,9.3,12.3,9.9,11.8,10.3z M8.9,19.2c0.2,0.5-0.1,1.1-0.7,1.3l-0.9,0.3c-0.1,0-0.2,0.1-0.3,0.1
		c-0.4,0-0.8-0.3-1-0.7c-0.2-0.5,0.1-1.1,0.7-1.3l0.9-0.3C8.2,18.3,8.7,18.6,8.9,19.2z M16.5,24.7c0.6,0,1,0.5,1,1v1
		c0,0.6-0.5,1-1,1c-0.6,0-1-0.5-1-1v-1C15.5,25.2,15.9,24.7,16.5,24.7z M26.3,18.8c0.5,0.2,0.8,0.8,0.7,1.3c-0.1,0.4-0.5,0.7-1,0.7
		c-0.1,0-0.2,0-0.3-0.1l-0.9-0.3c-0.5-0.2-0.8-0.8-0.7-1.3c0.2-0.5,0.8-0.8,1.3-0.7L26.3,18.8z"/>
</g>
</svg>
