<?xml version="1.0" encoding="UTF-8"?>
<svg width="32px" height="32px" viewBox="0 0 32 32" version="1.1" xmlns="http://www.w3.org/2000/svg" xmlns:xlink="http://www.w3.org/1999/xlink">
    <defs>
        <path d="M24.1312814,12.4860521 C24.8201,12.586106 25.3845531,13.0619708 25.5996716,13.7239938 C25.8147255,14.3859833 25.637809,15.102752 25.139391,15.5885899 L22.0616774,18.58855 L22.788224,22.8245933 C22.9059144,23.5105741 22.627756,24.1944494 22.0648102,24.6035175 C21.7511105,24.8316484 21.3783165,24.9525391 20.9968844,24.9525391 C20.703495,24.9525937 20.4132627,24.8810689 20.1491218,24.7422147 L16.3448778,22.742217 L12.5406477,24.7422273 C11.9245457,25.0660868 11.188059,25.0128582 10.6250422,24.6036846 C10.0619415,24.1945577 9.78381326,23.5107346 9.9014482,22.8246562 L10.6279992,18.5885873 L7.55034362,15.5886087 C7.05184413,15.1027438 6.87490071,14.3859268 7.09006642,13.7239239 C7.30522416,13.0619456 7.86963594,12.586103 8.55841042,12.4860555 L12.8116297,11.8680501 L14.7137223,8.01397877 C15.0217349,7.38978134 15.6487628,7 16.3448381,7 C17.0409135,7 17.6679413,7.38978134 17.9759399,8.01395027 L19.8780494,11.8680179 L24.1312814,12.4860521 Z M20.0151979,18.8136626 C19.9139752,18.223511 20.1095313,17.621596 20.5382929,17.203715 L23.362185,14.4510951 L19.4597077,13.8840238 C18.8671584,13.7979348 18.3551266,13.4259252 18.0901799,12.8889759 L16.3449348,9.35267814 L14.5996905,12.8889393 C14.3346844,13.4258997 13.8226254,13.7978971 13.2300989,13.8839829 L9.32765152,14.4510599 L12.1515149,17.2036518 C12.5803332,17.6215893 12.7758981,18.2235011 12.6746734,18.8136641 L12.0080571,22.7002907 L15.4986047,20.8652286 C15.7607121,20.7275129 16.0510862,20.6563672 16.3449163,20.6563672 C16.6387674,20.6563672 16.9291139,20.7275233 17.1913358,20.8653244 L20.6818157,22.7003675 L20.0151979,18.8136626 Z" id="path-1"></path>
    </defs>
    <g id="Symbols" stroke="none" stroke-width="1" fill="none" fill-rule="evenodd">
        <g id="icon/solid/star-inactive">
            <mask id="mask-2" fill="white">
                <use xlink:href="#path-1"></use>
            </mask>
            <use id="Star" fill="#000000" fill-rule="nonzero" xlink:href="#path-1"></use>
            <g id="color/solid/primary" mask="url(#mask-2)" fill="#4990E2">
                <g transform="translate(-22.000000, -25.000000)" id="color">
                    <rect x="0" y="0" width="80" height="80"></rect>
                </g>
            </g>
        </g>
    </g>
</svg>