<?xml version="1.0" encoding="utf-8"?>
<!-- Generator: Adobe Illustrator 23.0.0, SVG Export Plug-In . SVG Version: 6.00 Build 0)  -->
<svg version="1.1" id="Layer_1" xmlns="http://www.w3.org/2000/svg" xmlns:xlink="http://www.w3.org/1999/xlink" x="0px" y="0px"
	 viewBox="0 0 32 32" style="enable-background:new 0 0 32 32;" xml:space="preserve">
<g>
	<path d="M24.1,12.5c0.7,0.1,1.3,0.6,1.5,1.2c0.2,0.7,0,1.4-0.5,1.9l-3.1,3l0.7,4.2c0.1,0.7-0.2,1.4-0.7,1.8
		C21.8,24.8,21.4,25,21,25c-0.3,0-0.6-0.1-0.8-0.2l-3.8-2l-3.8,2c-0.6,0.3-1.4,0.3-1.9-0.1c-0.6-0.4-0.8-1.1-0.7-1.8l0.7-4.2l-3.1-3
		c-0.5-0.5-0.7-1.2-0.5-1.9c0.2-0.7,0.8-1.1,1.5-1.2l4.3-0.6L14.7,8c0.3-0.6,0.9-1,1.6-1C17,7,17.7,7.4,18,8l1.9,3.9L24.1,12.5z
		 M20,18.8c-0.1-0.6,0.1-1.2,0.5-1.6l2.8-2.8l-3.9-0.6c-0.6-0.1-1.1-0.5-1.4-1l-1.7-3.5l-1.7,3.5c-0.3,0.5-0.8,0.9-1.4,1l-3.9,0.6
		l2.8,2.8c0.4,0.4,0.6,1,0.5,1.6L12,22.7l3.5-1.8c0.3-0.1,0.6-0.2,0.8-0.2c0.3,0,0.6,0.1,0.8,0.2l3.5,1.8L20,18.8z"/>
</g>
</svg>
