<?xml version="1.0" encoding="UTF-8"?>
<svg width="32px" height="32px" viewBox="0 0 32 32" version="1.1" xmlns="http://www.w3.org/2000/svg" xmlns:xlink="http://www.w3.org/1999/xlink">
    <defs>
        <path d="M9.09459223,9.08434609 C8.83034476,9.34871484 8.70604743,9.73536864 8.75219681,10.188927 C8.80174189,10.6735901 9.0333028,11.1580677 9.41180362,11.5606678 L9.46302824,10.7969221 C9.50889422,10.0780253 10.0873044,9.49934966 10.8050342,9.45351725 L11.5735099,9.40271863 C10.7572886,8.63709307 9.65722804,8.52145201 9.09459223,9.08434609 Z M15.3406405,9.15369962 C15.3907348,9.1491435 15.4254778,9.14835352 15.4967269,9.14835352 C16.0840569,9.14835352 16.6424781,9.38084663 17.0592176,9.79777746 L23.3455648,16.0905062 C23.8280636,16.5693987 24.0957455,17.2109409 24.0999804,17.8987001 C24.0999804,18.5818829 23.8352539,19.2239724 23.3531753,19.7062723 L19.7067458,23.3543694 C19.2229451,23.8341463 18.5809168,24.1002039 17.9011154,24.1002039 C17.2181047,24.1002039 16.5761988,23.8353101 16.0940805,23.3529704 L9.80352915,17.0595316 C9.35096367,16.6067584 9.1153051,15.982739 9.159037,15.3483714 L9.2720514,13.6255984 C8.89627058,13.4250124 8.54623796,13.1654117 8.23788082,12.856913 C7.54328809,12.1620015 7.10883178,11.2793318 7.01800253,10.3666714 C6.92109018,9.39306326 7.21737444,8.50058053 7.86044774,7.85721205 C9.14656814,6.5705013 11.3852776,6.76230199 12.8654283,8.23132202 C13.1581265,8.52415458 13.1987674,8.97308007 12.9873509,9.30925935 L15.3406405,9.15369962 Z M11.5735099,9.40271863 C11.5943108,9.42223018 11.6149274,9.44216388 11.6353461,9.46251924 C11.9747845,9.80211439 12.5254224,9.80211439 12.8654283,9.46195242 C12.912622,9.41473708 12.9532628,9.36346376 12.9873509,9.30925935 L11.5735099,9.40271863 Z M10.1899072,13.3828955 L10.0570065,15.408775 C10.0311322,15.7841243 10.1707543,16.1538409 10.4400713,16.4232816 L16.7306226,22.7167204 C17.0436168,23.0298582 17.4564082,23.2002039 17.9011154,23.2002039 C18.3427927,23.2002039 18.75726,23.028448 19.0716082,22.7167204 L22.7166332,19.0700222 C23.0296671,18.7568446 23.1999804,18.3437528 23.1999889,17.9014765 C23.1972245,17.4534234 23.0244454,17.0395676 22.7110482,16.7287769 L16.4225871,10.4339391 C16.1743433,10.1855813 15.8447382,10.0483535 15.4967269,10.0483535 C15.4526492,10.0483535 15.4361358,10.048729 15.4110952,10.050869 L10.8634075,10.3516216 C10.5966346,10.3686575 10.3782416,10.5871508 10.3611065,10.8556874 L10.2044786,13.191019 L10.1899072,13.3828955 Z M11.0931069,12.351587 C11.4601283,12.3480571 11.7727336,12.224743 11.9971022,12.0003743 C12.336933,11.6605436 12.887202,11.6605436 13.2270328,12.0003743 C13.5668635,12.3402051 13.5668635,12.8904742 13.2270328,13.2303049 C12.6673352,13.7900026 11.9140993,14.0883138 11.079352,14.0883138 C11.0458531,14.0883138 11.0118577,14.0876886 10.977174,14.0864608 L10.8859675,15.45195 C10.8770471,15.5875398 10.9268079,15.7192874 11.0239724,15.8164519 L17.3084552,22.1009347 C17.4622581,22.2547376 17.6658348,22.3392189 17.8840502,22.3392189 C18.1022657,22.3392189 18.3058424,22.2547376 18.4596453,22.1009347 L22.1046453,18.4559347 C22.2584482,18.3021318 22.3429296,18.0985551 22.3429296,17.8803396 C22.3429296,17.6621241 22.2584482,17.4585474 22.1046453,17.3047446 L15.8236539,11.0237532 C15.7389379,10.9390372 15.6192517,10.8887576 15.4964868,10.8867796 C15.473029,10.8888645 15.473029,10.8888645 15.4558008,10.8892304 L11.172316,11.172252 L11.0931069,12.351587 Z M10.1660101,12.7248389 L10.2911523,10.8631821 C10.3050819,10.556731 10.5466398,10.3192674 10.8541532,10.2914489 L15.4261192,9.99021033 C15.4562822,9.98734997 15.4562822,9.98734997 15.488964,9.98671895 C15.8523711,9.98671895 16.2043404,10.1316475 16.46005,10.3873571 L22.7410414,16.6683485 C23.0634764,16.9907835 23.2429296,17.4232157 23.2429296,17.8803396 C23.2429296,18.3374636 23.0634764,18.7698958 22.7410414,19.0923308 L19.0960414,22.7373308 C18.7736064,23.0597658 18.3411742,23.2392189 17.8840502,23.2392189 C17.4269263,23.2392189 16.9944941,23.0597658 16.6720591,22.7373308 L10.3875763,16.452848 C10.1073894,16.1726611 9.96194156,15.7875706 9.98793865,15.3924182 L10.1393291,13.125887 L10.1660101,12.7248389 Z" id="path-1"></path>
    </defs>
    <g id="Symbols" stroke="none" stroke-width="1" fill="none" fill-rule="evenodd">
        <g id="icon/solid/tag">
            <mask id="mask-2" fill="white">
                <use xlink:href="#path-1"></use>
            </mask>
            <use id="tag" fill="#000000" fill-rule="nonzero" xlink:href="#path-1"></use>
            <g id="color/solid/primary" mask="url(#mask-2)" fill="#4990E2">
                <g transform="translate(-22.000000, -25.000000)" id="color">
                    <rect x="0" y="0" width="80" height="80"></rect>
                </g>
            </g>
        </g>
    </g>
</svg>