<?xml version="1.0" encoding="utf-8"?>
<!-- Generator: Adobe Illustrator 23.0.0, SVG Export Plug-In . SVG Version: 6.00 Build 0)  -->
<svg version="1.1" id="Layer_1" xmlns="http://www.w3.org/2000/svg" xmlns:xlink="http://www.w3.org/1999/xlink" x="0px" y="0px"
	 viewBox="0 0 32 32" style="enable-background:new 0 0 32 32;" xml:space="preserve">
<style type="text/css">
	.st0{fill-rule:evenodd;clip-rule:evenodd;fill:#FFFFFF;}
	.st1{fill-rule:evenodd;clip-rule:evenodd;}
</style>
<path class="st0" d="M9.1,9.1c-0.3,0.3-0.4,0.7-0.3,1.1c0,0.5,0.3,1,0.7,1.4l0.1-0.8c0-0.7,0.6-1.3,1.3-1.3l0.8-0.1
	C10.8,8.6,9.7,8.5,9.1,9.1z"/>
<path class="st1" d="M23.3,16.1l-6.3-6.3c-0.4-0.4-1-0.6-1.6-0.6c-0.1,0-0.1,0-0.2,0L13,9.3c0.2-0.3,0.2-0.8-0.1-1.1
	c-1.5-1.5-3.7-1.7-5-0.4C7.2,8.5,6.9,9.4,7,10.4c0.1,0.9,0.5,1.8,1.2,2.5c0.3,0.3,0.7,0.6,1,0.8l-0.1,1.7c0,0.6,0.2,1.3,0.6,1.7
	l6.3,6.3c0.5,0.5,1.1,0.7,1.8,0.7c0.7,0,1.3-0.3,1.8-0.7l3.6-3.6c0.5-0.5,0.7-1.1,0.7-1.8C24.1,17.2,23.8,16.6,23.3,16.1z M9.5,10.8
	l-0.1,0.8c-0.4-0.4-0.6-0.9-0.7-1.4c0-0.5,0.1-0.8,0.3-1.1c0.6-0.6,1.7-0.4,2.5,0.3l-0.8,0.1C10.1,9.5,9.5,10.1,9.5,10.8z
	 M22.1,18.5l-3.6,3.6c-0.2,0.2-0.4,0.2-0.6,0.2c-0.2,0-0.4-0.1-0.6-0.2L11,15.8c-0.1-0.1-0.1-0.2-0.1-0.4l0.1-1.4c0,0,0.1,0,0.1,0
	c0.8,0,1.6-0.3,2.1-0.9c0.3-0.3,0.3-0.9,0-1.2c-0.3-0.3-0.9-0.3-1.2,0c-0.2,0.2-0.5,0.3-0.9,0.4l0.1-1.2l4.3-0.3c0,0,0,0,0,0
	c0.1,0,0.2,0.1,0.3,0.1l6.3,6.3c0.2,0.2,0.2,0.4,0.2,0.6S22.3,18.3,22.1,18.5z"/>
</svg>
