<?xml version="1.0" encoding="UTF-8"?>
<svg width="32px" height="32px" viewBox="0 0 32 32" version="1.1" xmlns="http://www.w3.org/2000/svg" xmlns:xlink="http://www.w3.org/1999/xlink">
    <defs>
        <path d="M11,13 L21,13 L21.002,23 L11,23 L11,13 Z M9,23 L9,11 L23,11 L23,23 C23,24.103 22.103,25 21,25 L11,25 C9.897,25 9,24.103 9,23 Z M19,8 L25,8 L25,10 L7,10 L7,8 L13,8 L13,6 L19,6 L19,8 Z M13,20.9995 L15,20.9995 L15,14.9995 L13,14.9995 L13,20.9995 Z M17,20.9995 L19,20.9995 L19,14.9995 L17,14.9995 L17,20.9995 Z" id="path-1"></path>
    </defs>
    <g id="Symbols" stroke="none" stroke-width="1" fill="none" fill-rule="evenodd">
        <g id="icon/solid/trash">
            <mask id="mask-2" fill="white">
                <use xlink:href="#path-1"></use>
            </mask>
            <use id="trash" fill="#000000" xlink:href="#path-1"></use>
            <g id="color/solid/primary" mask="url(#mask-2)" fill="#4990E2">
                <g transform="translate(-22.000000, -25.000000)" id="color">
                    <rect x="0" y="0" width="80" height="80"></rect>
                </g>
            </g>
        </g>
    </g>
</svg>