<?xml version="1.0" encoding="utf-8"?>
<!-- Generator: Adobe Illustrator 23.0.0, SVG Export Plug-In . SVG Version: 6.00 Build 0)  -->
<svg version="1.1" id="Layer_1" xmlns="http://www.w3.org/2000/svg" xmlns:xlink="http://www.w3.org/1999/xlink" x="0px" y="0px"
	 viewBox="0 0 32 32" style="enable-background:new 0 0 32 32;" xml:space="preserve">
<g transform="rotate(-180 16 16)">
	<path d="M16,20.5c0.6,0,1.1-0.5,1.1-1.1s-0.5-1.1-1.1-1.1s-1.1,0.5-1.1,1.1S15.4,20.5,16,20.5z M16,17.1c0.6,0,1.1-0.5,1.1-1.1
		v-3.4c0-0.6-0.5-1.1-1.1-1.1s-1.1,0.5-1.1,1.1V16C14.9,16.6,15.4,17.1,16,17.1z M16,25c5,0,9-4,9-9s-4-9-9-9s-9,4-9,9S11,25,16,25z
		 M16,8.7c4,0,7.3,3.3,7.3,7.3S20,23.3,16,23.3c-4,0-7.3-3.3-7.3-7.3S12,8.7,16,8.7z"/>
</g>
</svg>
