<?xml version="1.0" encoding="utf-8"?>
<!-- Generator: Adobe Illustrator 23.0.0, SVG Export Plug-In . SVG Version: 6.00 Build 0)  -->
<svg version="1.1" id="Layer_1" xmlns="http://www.w3.org/2000/svg" xmlns:xlink="http://www.w3.org/1999/xlink" x="0px" y="0px"
	 viewBox="0 0 32 32" style="enable-background:new 0 0 32 32;" xml:space="preserve">
<path fill="red" d="M16,7c-5,0-9,4-9,9c0,5,4,9,9,9s9-4,9-9C25,11,21,7,16,7z M21.7,11.2c1,1.2,1.6,2.7,1.7,4.4c-1.9-0.3-3.7-0.3-5.3-0.1
	c-0.2-0.4-0.4-0.8-0.6-1.3C19.2,13.5,20.6,12.5,21.7,11.2z M16,8.6c1.7,0,3.3,0.6,4.5,1.6c-0.9,1.2-2.2,2.1-3.7,2.8
	c-0.8-1.4-1.6-2.8-2.6-4.1C14.8,8.7,15.4,8.6,16,8.6z M12.6,9.4c1,1.3,1.9,2.7,2.7,4c-1.8,0.5-4,0.8-6.5,0.8
	C9.3,12.1,10.7,10.3,12.6,9.4z M8.6,16l0-0.2c2.9,0,5.4-0.3,7.5-1c0.2,0.4,0.3,0.7,0.5,1.1c-2.5,0.8-4.6,2.4-6.3,4.9
	C9.2,19.5,8.6,17.8,8.6,16z M11.4,21.9c1.5-2.3,3.4-3.8,5.7-4.5c0.7,1.8,1.2,3.7,1.5,5.6C16.2,23.9,13.5,23.4,11.4,21.9z M20.1,22.2
	c-0.3-1.8-0.8-3.5-1.4-5.2c1.4-0.2,3-0.1,4.6,0.1C23,19.2,21.8,21,20.1,22.2z"/>
</svg>
