<?xml version="1.0" encoding="UTF-8"?>
<svg width="32px" height="32px" viewBox="0 0 32 32" version="1.1" xmlns="http://www.w3.org/2000/svg" xmlns:xlink="http://www.w3.org/1999/xlink">
    <defs>
        <path d="M16,7 C11.029,7 7,11.02975 7,16 C7,20.97025 11.029,25 16,25 C20.971,25 25,20.97025 25,16 C25,11.02975 20.971,7 16,7 Z M23.41375,15.58075 C21.4825,15.26425 19.7065,15.247 18.0865,15.526 C17.9035,15.10375 17.71375,14.68225 17.51125,14.266 C19.24375,13.516 20.635,12.4975 21.67225,11.2045 C22.68475,12.4 23.32,13.91875 23.41375,15.58075 Z M20.53225,10.11925 C19.6285,11.28475 18.38125,12.2065 16.79275,12.87925 C16.03075,11.4835 15.15925,10.12225 14.17675,8.80075 C14.761,8.653 15.37,8.56525 16,8.56525 C17.70625,8.56525 19.276,9.1495 20.53225,10.11925 Z M12.64525,9.3745 C13.6435,10.681 14.5285,12.028 15.298,13.41025 C13.4755,13.9465 11.29975,14.22175 8.785,14.239 C9.304,12.11275 10.73575,10.34425 12.64525,9.3745 L12.64525,9.3745 Z M8.56525,16 L8.575,15.808 C11.46175,15.80425 13.95175,15.472 16.0375,14.8165 C16.21225,15.17275 16.3795,15.5305 16.54,15.8905 C14.005,16.68325 11.91625,18.307 10.28725,20.7505 C9.21325,19.46125 8.56525,17.80525 8.56525,16 L8.56525,16 Z M11.437,21.8575 C12.91375,19.5415 14.7985,18.034 17.1355,17.33725 C17.8315,19.15225 18.34225,21.01975 18.66775,22.93225 C16.156,23.9005 13.453,23.43175 11.437,21.8575 Z M20.1265,22.18 C19.798,20.41525 19.3165,18.69025 18.6865,17.00725 C20.0935,16.8085 21.6415,16.86025 23.33575,17.15425 C23.008,19.24375 21.81475,21.04825 20.1265,22.18 Z" id="path-1"></path>
    </defs>
    <g id="Symbols" stroke="none" stroke-width="1" fill="none" fill-rule="evenodd">
        <g id="icon/social/dribbble">
            <mask id="mask-2" fill="white">
                <use xlink:href="#path-1"></use>
            </mask>
            <use id="dribbble" fill="#000000" fill-rule="nonzero" xlink:href="#path-1"></use>
            <g id="color/solid/primary" mask="url(#mask-2)" fill="#4990E2">
                <g transform="translate(-24.000000, -24.000000)" id="color">
                    <rect x="0" y="0" width="80" height="80"></rect>
                </g>
            </g>
        </g>
    </g>
</svg>