<?xml version="1.0" encoding="UTF-8"?>
<svg width="32px" height="32px" viewBox="0 0 32 32" version="1.1" xmlns="http://www.w3.org/2000/svg" xmlns:xlink="http://www.w3.org/1999/xlink">
    <defs>
        <path d="M13.3049665,16.9352396 C13.0922214,16.9352396 12.9197116,16.762769 12.9197116,16.5499847 L12.9197116,15.1382592 C12.9197116,14.9254749 13.0921822,14.7530043 13.3049665,14.7530043 L18.4961822,14.7530043 C18.4961822,14.7530043 18.4932411,16.0346122 18.4887705,16.0725337 C18.3209665,19.0972004 15.8157901,21.4983377 12.7491626,21.4983377 C9.5603391,21.4983377 6.97786851,18.9021808 7.00014302,15.7081808 C7.02222145,12.5379847 9.69394694,9.93920041 12.863594,10.0010828 C14.3496724,10.0301024 15.6972803,10.6233181 16.7018685,11.5750435 C16.8626528,11.7273573 16.8620646,11.9837102 16.7008097,12.1355141 L15.669594,13.1060632 C15.5220254,13.2449651 15.2936332,13.2441024 15.143594,13.1079063 C14.510143,12.5330435 13.6699077,12.18222 12.7491626,12.18222 C10.7354371,12.18222 9.10606459,13.8596318 9.18496655,15.890573 C9.25857439,17.7852396 10.8263391,19.3020239 12.7223783,19.3160239 C14.2850058,19.3275534 15.6197509,18.328573 16.1125744,16.9352396 L13.3049665,16.9352396 Z M23.2534764,14.8812004 L24.6328097,14.8812004 C24.8192803,14.8812004 24.9704175,15.0323377 24.9704175,15.2188083 L24.9704175,16.3797494 C24.9704175,16.56622 24.8192803,16.7173573 24.6328097,16.7173573 L23.2534764,16.7173573 L23.2534764,18.0966906 C23.2534764,18.2831612 23.1023391,18.4342984 22.9158685,18.4342984 L21.7549273,18.4342984 C21.5684567,18.4342984 21.4173195,18.2831612 21.4173195,18.0966906 L21.4173195,16.7173573 L20.0379862,16.7173573 C19.8515156,16.7173573 19.7003783,16.56622 19.7003783,16.3797494 L19.7003783,15.2188083 C19.7003783,15.0323377 19.8515156,14.8812004 20.0379862,14.8812004 L21.4173195,14.8812004 L21.4173195,13.5018671 C21.4173195,13.3153965 21.5684567,13.1642592 21.7549273,13.1642592 L22.9158685,13.1642592 C23.1023391,13.1642592 23.2534764,13.3153965 23.2534764,13.5018671 L23.2534764,14.8812004 Z" id="path-1"></path>
    </defs>
    <g id="Symbols" stroke="none" stroke-width="1" fill="none" fill-rule="evenodd">
        <g id="icon/social/googleplus">
            <mask id="mask-2" fill="white">
                <use xlink:href="#path-1"></use>
            </mask>
            <use id="google+" fill="#000000" fill-rule="nonzero" xlink:href="#path-1"></use>
            <g id="color/solid/primary" mask="url(#mask-2)" fill="#4990E2">
                <g transform="translate(-23.000000, -23.000000)" id="color">
                    <rect x="0" y="0" width="80" height="80"></rect>
                </g>
            </g>
        </g>
    </g>
</svg>