<?xml version="1.0" encoding="utf-8"?>
<!-- Generator: Adobe Illustrator 23.0.0, SVG Export Plug-In . SVG Version: 6.00 Build 0)  -->
<svg version="1.1" id="Layer_1" xmlns="http://www.w3.org/2000/svg" xmlns:xlink="http://www.w3.org/1999/xlink" x="0px" y="0px"
	 viewBox="0 0 32 32" style="enable-background:new 0 0 32 32;" xml:space="preserve">
<g>
	<path d="M16,8.6c2.4,0,2.7,0,3.6,0.1c2.4,0.1,3.6,1.3,3.7,3.7c0,0.9,0.1,1.2,0.1,3.6c0,2.4,0,2.7-0.1,3.6c-0.1,2.4-1.2,3.6-3.7,3.7
		c-0.9,0-1.2,0.1-3.6,0.1c-2.4,0-2.7,0-3.6-0.1c-2.4-0.1-3.6-1.3-3.7-3.7c0-0.9-0.1-1.2-0.1-3.6c0-2.4,0-2.7,0.1-3.6
		c0.1-2.4,1.2-3.6,3.7-3.7C13.3,8.6,13.6,8.6,16,8.6L16,8.6z M16,7c-2.4,0-2.8,0-3.7,0.1C9,7.2,7.2,9,7.1,12.3C7,13.2,7,13.6,7,16
		s0,2.8,0.1,3.7c0.2,3.3,2,5.1,5.2,5.2c1,0,1.3,0.1,3.7,0.1s2.8,0,3.7-0.1c3.3-0.1,5.1-2,5.2-5.2c0-1,0.1-1.3,0.1-3.7s0-2.8-0.1-3.7
		c-0.1-3.3-2-5.1-5.2-5.2C18.8,7,18.4,7,16,7L16,7z M16,11.4c-2.6,0-4.6,2.1-4.6,4.6s2.1,4.6,4.6,4.6s4.6-2.1,4.6-4.6
		C20.6,13.4,18.6,11.4,16,11.4z M16,19c-1.7,0-3-1.3-3-3c0-1.7,1.3-3,3-3s3,1.3,3,3C19,17.7,17.7,19,16,19z M20.8,10.1
		c-0.6,0-1.1,0.5-1.1,1.1s0.5,1.1,1.1,1.1c0.6,0,1.1-0.5,1.1-1.1S21.4,10.1,20.8,10.1z"/>
</g>
</svg>
