<?xml version="1.0" encoding="utf-8"?>
<!-- Generator: Adobe Illustrator 23.0.0, SVG Export Plug-In . SVG Version: 6.00 Build 0)  -->
<svg version="1.1" id="Layer_1" xmlns="http://www.w3.org/2000/svg" xmlns:xlink="http://www.w3.org/1999/xlink" x="0px" y="0px"
	 viewBox="0 0 32 32" style="enable-background:new 0 0 32 32;" xml:space="preserve">
<style type="text/css">
	.st0{fill:#2D333A;}
</style>
<g>
	<path class="st0" d="M24.1,13.5c1.8,6.1,0.4,8.8-5.7,10.6c-6.1,1.8-8.8,0.4-10.6-5.7S7.3,9.6,13.5,7.7C19.6,5.9,22.3,7.3,24.1,13.5
		z M21,17.5c0.5-0.2,0.7-0.7,0.6-1.2c-0.2-0.5-0.7-0.7-1.2-0.6l-1.2,0.4l-0.8-2.3l1.2-0.4c0.5-0.2,0.7-0.7,0.6-1.2
		c-0.2-0.5-0.7-0.7-1.2-0.6L17.9,12l-0.4-1.2c-0.2-0.5-0.7-0.7-1.2-0.6c-0.5,0.2-0.7,0.7-0.6,1.2l0.4,1.2l-2.4,0.8l-0.4-1.2
		c-0.2-0.5-0.7-0.7-1.2-0.6c-0.5,0.2-0.7,0.7-0.6,1.2L12,14l-1.2,0.4c-0.5,0.2-0.7,0.7-0.6,1.2c0.1,0.4,0.5,0.6,0.9,0.6
		c0.1,0,0.2,0,0.3,0l1.2-0.4l0.8,2.3l-1.2,0.4c-0.5,0.2-0.7,0.7-0.6,1.2c0.1,0.4,0.5,0.6,0.9,0.6c0.1,0,0.2,0,0.3,0l1.2-0.4l0.4,1.2
		c0.1,0.4,0.5,0.6,0.9,0.6c0.1,0,0.2,0,0.3,0c0.5-0.2,0.7-0.7,0.6-1.2l-0.4-1.2l2.4-0.8l0.4,1.2c0.1,0.4,0.5,0.6,0.9,0.6
		c0.1,0,0.2,0,0.3,0c0.5-0.2,0.7-0.7,0.6-1.2l-0.4-1.2C19.9,17.8,21,17.5,21,17.5z M14.4,15.2l2.4-0.8l0.8,2.3l-2.4,0.8
		C15.1,17.5,14.4,15.2,14.4,15.2z"/>
</g>
</svg>
