<?xml version="1.0" encoding="UTF-8"?>
<svg width="32px" height="32px" viewBox="0 0 32 32" version="1.1" xmlns="http://www.w3.org/2000/svg" xmlns:xlink="http://www.w3.org/1999/xlink">
    <defs>
        <path d="M24.1204528,13.4775957 C25.96331,19.6204528 24.5347386,22.2775957 18.3918814,24.1204528 C12.2490243,25.96331 9.59188142,24.5347386 7.74902427,18.3918814 C5.90616713,12.2490243 7.33473856,9.59188142 13.4775957,7.74902427 C19.6204528,5.90616713 22.2775957,7.33473856 24.1204528,13.4775957 Z M21.0204528,17.46331 C21.5061671,17.3061671 21.76331,16.7775957 21.6061671,16.2918814 C21.4490243,15.8061671 20.9204528,15.5490243 20.4347386,15.7061671 L19.2775957,16.0918814 L18.5061671,13.7918814 L19.66331,13.4061671 C20.1490243,13.2490243 20.4061671,12.7204528 20.2490243,12.2347386 C20.0918814,11.7490243 19.56331,11.4918814 19.0775957,11.6490243 L17.9204528,12.0347386 L17.5204528,10.8347386 C17.36331,10.3490243 16.8347386,10.0918814 16.3490243,10.2490243 C15.86331,10.4061671 15.6061671,10.9347386 15.76331,11.4204528 L16.16331,12.6204528 L13.7775957,13.4204528 L13.3775957,12.2204528 C13.2204528,11.7347386 12.6918814,11.4775957 12.2061671,11.6347386 C11.7204528,11.7918814 11.46331,12.3204528 11.6204528,12.8061671 L12.0204528,14.0061671 L10.86331,14.3918814 C10.3775957,14.5490243 10.1204528,15.0775957 10.2775957,15.56331 C10.4061671,15.9347386 10.76331,16.1775957 11.1347386,16.1918814 C11.2347386,16.2061671 11.3490243,16.1775957 11.4490243,16.1490243 L12.6061671,15.76331 L13.3775957,18.06331 L12.2204528,18.4490243 C11.7347386,18.6061671 11.4775957,19.1347386 11.6347386,19.6204528 C11.76331,19.9918814 12.1204528,20.2347386 12.4918814,20.2490243 C12.5918814,20.26331 12.7061671,20.2347386 12.8061671,20.2061671 L13.96331,19.8204528 L14.36331,21.0204528 C14.4918814,21.3918814 14.8490243,21.6347386 15.2204528,21.6490243 C15.3204528,21.66331 15.4347386,21.6347386 15.5347386,21.6061671 C16.0204528,21.4490243 16.2775957,20.9204528 16.1204528,20.4347386 L15.7204528,19.2347386 L18.1061671,18.4347386 L18.5061671,19.6347386 C18.6347386,20.0061671 18.9918814,20.2490243 19.36331,20.26331 C19.46331,20.2775957 19.5775957,20.2490243 19.6775957,20.2204528 C20.16331,20.06331 20.4204528,19.5347386 20.26331,19.0490243 L19.86331,17.8490243 L21.0204528,17.46331 Z M14.3568071,15.19629 L16.7408528,14.3977528 L17.5121671,16.7005243 L15.1281214,17.4990614 L14.3568071,15.19629 Z" id="path-1"></path>
    </defs>
    <g id="Symbols" stroke="none" stroke-width="1" fill="none" fill-rule="evenodd">
        <g id="icon/social/slack">
            <mask id="mask-2" fill="white">
                <use xlink:href="#path-1"></use>
            </mask>
            <use id="slack" fill="#2D333A" fill-rule="nonzero" xlink:href="#path-1"></use>
            <g id="color/solid/primary" mask="url(#mask-2)" fill="#4990E2">
                <g transform="translate(-23.000000, -23.000000)" id="color">
                    <rect x="0" y="0" width="80" height="80"></rect>
                </g>
            </g>
        </g>
    </g>
</svg>