<?xml version="1.0" encoding="utf-8"?>
<!-- Generator: Adobe Illustrator 23.0.0, SVG Export Plug-In . SVG Version: 6.00 Build 0)  -->
<svg version="1.1" id="Layer_1" xmlns="http://www.w3.org/2000/svg" xmlns:xlink="http://www.w3.org/1999/xlink" x="0px" y="0px"
	 viewBox="0 0 32 32" style="enable-background:new 0 0 32 32;" xml:space="preserve">
<g>
	<path d="M25,10.7c-0.7,0.3-1.4,0.5-2.1,0.6c0.8-0.5,1.3-1.2,1.6-2c-0.7,0.4-1.5,0.7-2.3,0.9C21.5,9.4,20.5,9,19.5,9
		c-2.4,0-4.1,2.2-3.6,4.5c-3.1-0.2-5.8-1.6-7.6-3.9c-1,1.7-0.5,3.8,1.1,4.9c-0.6,0-1.2-0.2-1.7-0.5c0,1.7,1.2,3.3,3,3.7
		C10.2,18,9.6,18,9,17.9c0.5,1.5,1.8,2.5,3.4,2.6C10.9,21.7,9,22.2,7,22c1.6,1,3.6,1.7,5.7,1.7c6.9,0,10.7-5.8,10.5-11
		C23.9,12.1,24.5,11.5,25,10.7L25,10.7z"/>
</g>
</svg>
