<?xml version="1.0" encoding="utf-8"?>
<!-- Generator: Adobe Illustrator 23.0.0, SVG Export Plug-In . SVG Version: 6.00 Build 0)  -->
<svg version="1.1" id="Layer_1" xmlns="http://www.w3.org/2000/svg" xmlns:xlink="http://www.w3.org/1999/xlink" x="0px" y="0px"
	 viewBox="0 0 32 32" style="enable-background:new 0 0 32 32;" xml:space="preserve">
<g>
	<path d="M24.3,11.1c-0.6-0.8-1.8-1.1-4.1-1.1h-8.3c-2.3,0-3.6,0.3-4.2,1.2C7,12,7,13.1,7,14.8v3.1c0,3.2,0.7,4.8,4.8,4.8h8.3
		c2,0,3.1-0.3,3.8-1c0.7-0.7,1-1.8,1-3.8v-3.1C25,13.1,25,11.9,24.3,11.1z M18.6,16.8l-3.8,2c-0.1,0-0.2,0.1-0.3,0.1
		c-0.1,0-0.2,0-0.3-0.1c-0.2-0.1-0.3-0.3-0.3-0.5v-3.9c0-0.2,0.1-0.4,0.3-0.5c0.2-0.1,0.4-0.1,0.6,0l3.8,2c0.2,0.1,0.3,0.3,0.3,0.5
		C18.9,16.5,18.7,16.7,18.6,16.8z"/>
</g>
</svg>
