<?xml version="1.0" encoding="UTF-8"?>
<svg width="32px" height="32px" viewBox="0 0 32 32" version="1.1" xmlns="http://www.w3.org/2000/svg" xmlns:xlink="http://www.w3.org/1999/xlink">
    <defs>
        <path d="M24.2984065,11.0874323 C23.6486645,10.3150581 22.4490516,10 20.1580581,10 L11.8417677,10 C9.49834194,10 8.27840645,10.3353806 7.63110323,11.1576903 C7,11.9594452 7,13.1407677 7,14.7757484 L7,17.8920129 C7,21.0594903 7.7488,22.6677032 11.8417677,22.6677032 L20.1581161,22.6677032 C22.1448516,22.6677032 23.2457548,22.3896903 23.9579742,21.708071 C24.6883677,21.0090903 25,19.8678323 25,17.8920129 L25,14.7757484 C25,13.0515226 24.9511677,11.8632323 24.2984065,11.0874323 Z M18.5560581,16.7641097 L14.7796581,18.7377806 C14.6952323,18.7819097 14.6029097,18.8038 14.5107032,18.8038 C14.4063032,18.8038 14.3021355,18.7756968 14.209871,18.7198387 C14.0361419,18.6145677 13.9300581,18.4262645 13.9300581,18.2231548 L13.9300581,14.288471 C13.9300581,14.0857097 14.0358516,13.8975806 14.2092323,13.7922516 C14.382671,13.6869226 14.5983806,13.6797226 14.7783226,13.7732065 L18.5547226,15.7341613 C18.7468581,15.8339161 18.8675161,16.0322645 18.8678065,16.248671 C18.8680387,16.4652516 18.7479032,16.6638903 18.5560581,16.7641097 Z" id="path-1"></path>
    </defs>
    <g id="Symbols" stroke="none" stroke-width="1" fill="none" fill-rule="evenodd">
        <g id="icon/social/youtube">
            <mask id="mask-2" fill="white">
                <use xlink:href="#path-1"></use>
            </mask>
            <use id="youtube" fill="#000000" fill-rule="nonzero" xlink:href="#path-1"></use>
            <g id="color/solid/primary" mask="url(#mask-2)" fill="#4990E2">
                <g transform="translate(-23.000000, -23.000000)" id="color">
                    <rect x="0" y="0" width="80" height="80"></rect>
                </g>
            </g>
        </g>
    </g>
</svg>