<svg xmlns="http://www.w3.org/2000/svg" width="50" height="50" viewBox="0 0 50 50" xmlns:xlink="http://www.w3.org/1999/xlink"><defs><path id="a" d="M16.855 27.115c-.56 0-1.112-.099-1.64-.292l.611-1.658a2.976 2.976 0 0 0 2.16-.039l.67 1.635a4.714 4.714 0 0 1-1.801.354zm13.005-1.174l-2.488-1.418.874-1.536 2.49 1.418-.876 1.535zm-9.683-.03l-.907-1.517 2.459-1.471.907 1.516-2.459 1.471zm5.878-2.113a2.972 2.972 0 0 0-2.157-.05l-.602-1.663a4.772 4.772 0 0 1 1.613-.283c.63 0 1.245.123 1.825.366l-.68 1.63zm-13.101-.244a1.453 1.453 0 1 0-.002 2.905 1.453 1.453 0 0 0 .002-2.905zM33.318 13L25 7l-8.317 6L7 7v30l9.683 6L25 37l8.318 6L43 37V7l-9.682 6zM40 35.33l-6 3.719V32.5h-1.5v6.212l-6-4.328V28h-3v6.383l-6 4.327V31H16v8.047l-6-3.718V12.388l6 3.719V20.5h1.5v-4.39l6-4.33v5.72h3v-5.72l6 4.33V19H34v-2.893l6-3.719v22.943zm-1.992-7.306l-1.944-1.911 1.91-1.94-1.063-1.052-1.907 1.942-1.941-1.908-1.055 1.053 1.944 1.914-1.91 1.944 1.055 1.055 1.916-1.947 1.942 1.912 1.053-1.062z"/></defs><use fill="#0E1C2D" fill-rule="nonzero" xlink:href="#a"/></svg>