<?xml version="1.0" encoding="UTF-8"?>
<svg width="184px" height="50px" viewBox="0 0 184 50" version="1.1" xmlns="http://www.w3.org/2000/svg" xmlns:xlink="http://www.w3.org/1999/xlink">
    <defs>
        <path d="M54.5,31.9907227 C54.5,31.0997677 54.1668328,30.3716662 53.5004883,29.8063965 C52.8341438,29.2411267 51.6736736,28.7413759 50.019043,28.3071289 C48.229646,27.8579079 46.8745163,27.2739294 45.9536133,26.5551758 C45.0327102,25.8364222 44.5722656,24.8668681 44.5722656,23.6464844 C44.5722656,22.3961526 45.0869903,21.3779336 46.1164551,20.5917969 C47.1459199,19.8056601 48.4692302,19.4125977 50.0864258,19.4125977 C51.7710045,19.4125977 53.1298776,19.8805292 54.1630859,20.8164062 C55.1962942,21.7522833 55.6979168,22.8940362 55.6679688,24.2416992 L55.6342773,24.309082 L54.3989258,24.309082 C54.3989258,23.2159776 54.0114785,22.3175491 53.2365723,21.6137695 C52.461666,20.90999 51.4116277,20.5581055 50.0864258,20.5581055 C48.7761979,20.5581055 47.7523637,20.8500947 47.0148926,21.434082 C46.2774214,22.0180693 45.9086914,22.744299 45.9086914,23.612793 C45.9086914,24.4363648 46.2493456,25.1232883 46.9306641,25.673584 C47.6119826,26.2238797 48.7874265,26.7086568 50.4570312,27.1279297 C52.2164802,27.5771507 53.5547643,28.1835899 54.4719238,28.9472656 C55.3890834,29.7109413 55.8476562,30.7179299 55.8476562,31.9682617 C55.8476562,33.2710026 55.3142143,34.3079389 54.2473145,35.0791016 C53.1804146,35.8502643 51.8196697,36.2358398 50.1650391,36.2358398 C48.5328694,36.2358398 47.1084859,35.8259318 45.8918457,35.0061035 C44.6752055,34.1862752 44.0856118,32.9902422 44.1230469,31.4179688 L44.1455078,31.3505859 L45.3808594,31.3505859 C45.3808594,32.6233788 45.8562778,33.5667287 46.8071289,34.1806641 C47.75798,34.7945994 48.8772722,35.1015625 50.1650391,35.1015625 C51.4602929,35.1015625 52.5065878,34.8170601 53.3039551,34.2480469 C54.1013223,33.6790336 54.5,32.9265997 54.5,31.9907227 Z M76.0256639,20.7939453 L70.399199,20.7939453 L70.399199,36 L69.0515428,36 L69.0515428,20.7939453 L63.4250779,20.7939453 L63.4250779,19.6484375 L76.0256639,19.6484375 L76.0256639,20.7939453 Z M92.6773043,31.4404297 L85.1865816,31.4404297 L83.5020113,36 L82.1094332,36 L88.3198824,19.6484375 L89.5889254,19.6484375 L95.7544527,36 L94.3618746,36 L92.6773043,31.4404297 Z M85.6358004,30.2387695 L92.239316,30.2387695 L88.98248,21.3891602 L88.9150972,21.3891602 L85.6358004,30.2387695 Z M105.656581,28.6103516 L105.656581,36 L104.320156,36 L104.320156,19.659668 L109.856777,19.659668 C111.608739,19.659668 112.952638,20.0433718 113.888515,20.810791 C114.824392,21.5782102 115.292324,22.6993741 115.292324,24.1743164 C115.292324,25.0428103 115.041512,25.8195767 114.539882,26.5046387 C114.038252,27.1897007 113.33074,27.6894516 112.417324,28.0039062 C113.428071,28.2584648 114.156172,28.7132943 114.60165,29.3684082 C115.047127,30.0235222 115.269863,30.8452099 115.269863,31.8334961 L115.269863,33.3720703 C115.269863,33.8811874 115.329758,34.3378886 115.44955,34.7421875 C115.569342,35.1464864 115.767745,35.4759102 116.044765,35.7304688 L116.044765,36 L114.674648,36 C114.397628,35.7304674 114.202969,35.3523787 114.090663,34.8657227 C113.978358,34.3790666 113.922206,33.8737005 113.922206,33.3496094 L113.922206,31.855957 C113.922206,30.8526968 113.598398,30.0609567 112.950771,29.4807129 C112.303144,28.9004691 111.3991,28.6103516 110.238613,28.6103516 L105.656581,28.6103516 Z M105.656581,27.4648438 L109.68832,27.4648438 C111.163262,27.4648438 112.241376,27.1672393 112.922695,26.5720215 C113.604013,25.9768037 113.944667,25.1738332 113.944667,24.1630859 C113.944667,23.0849555 113.605885,22.2557809 112.92831,21.6755371 C112.250735,21.0952933 111.226901,20.8051758 109.856777,20.8051758 L105.656581,20.8051758 L105.656581,27.4648438 Z M135.650019,20.7939453 L130.023554,20.7939453 L130.023554,36 L128.675898,36 L128.675898,20.7939453 L123.049433,20.7939453 L123.049433,19.6484375 L135.650019,19.6484375 L135.650019,20.7939453 Z M153.615624,28.0825195 L145.743065,28.0825195 L145.743065,34.8657227 L154.761132,34.8657227 L154.761132,36 L144.40664,36 L144.40664,19.6484375 L154.704979,19.6484375 L154.704979,20.7939453 L145.743065,20.7939453 L145.743065,26.9370117 L153.615624,26.9370117 L153.615624,28.0825195 Z M165.056327,28.6103516 L165.056327,36 L163.719901,36 L163.719901,19.659668 L169.256522,19.659668 C171.008484,19.659668 172.352383,20.0433718 173.28826,20.810791 C174.224138,21.5782102 174.692069,22.6993741 174.692069,24.1743164 C174.692069,25.0428103 174.441258,25.8195767 173.939628,26.5046387 C173.437998,27.1897007 172.730485,27.6894516 171.817069,28.0039062 C172.827816,28.2584648 173.555918,28.7132943 174.001395,29.3684082 C174.446873,30.0235222 174.669608,30.8452099 174.669608,31.8334961 L174.669608,33.3720703 C174.669608,33.8811874 174.729503,34.3378886 174.849296,34.7421875 C174.969088,35.1464864 175.167491,35.4759102 175.44451,35.7304688 L175.44451,36 L174.074393,36 C173.797374,35.7304674 173.602714,35.3523787 173.490409,34.8657227 C173.378104,34.3790666 173.321952,33.8737005 173.321952,33.3496094 L173.321952,31.855957 C173.321952,30.8526968 172.998143,30.0609567 172.350516,29.4807129 C171.702889,28.9004691 170.798846,28.6103516 169.638358,28.6103516 L165.056327,28.6103516 Z M165.056327,27.4648438 L169.088065,27.4648438 C170.563007,27.4648438 171.641122,27.1672393 172.32244,26.5720215 C173.003759,25.9768037 173.344413,25.1738332 173.344413,24.1630859 C173.344413,23.0849555 173.00563,22.2557809 172.328055,21.6755371 C171.65048,21.0952933 170.626646,20.8051758 169.256522,20.8051758 L165.056327,20.8051758 L165.056327,27.4648438 Z" id="path-1"></path>
        <path d="M53.6464844,12.7998047 C53.6464844,12.1184862 53.3938014,11.5607118 52.8884277,11.1264648 C52.3830541,10.6922179 51.4902408,10.3028989 50.2099609,9.95849609 C48.3831289,9.47932703 46.9774626,8.84481189 45.9929199,8.05493164 C45.0083772,7.26505139 44.5161133,6.22998687 44.5161133,4.94970703 C44.5161133,3.63199211 45.0607856,2.54639099 46.1501465,1.69287109 C47.2395074,0.839351201 48.6451737,0.412597656 50.3671875,0.412597656 C52.1640715,0.412597656 53.6071723,0.895502983 54.6965332,1.86132812 C55.7858941,2.82715327 56.3118491,3.98762343 56.2744141,5.34277344 L56.2519531,5.41015625 L53.6352539,5.41015625 C53.6352539,4.57161039 53.3507515,3.89217383 52.7817383,3.37182617 C52.212725,2.85147852 51.4003959,2.59130859 50.3447266,2.59130859 C49.3489534,2.59130859 48.5834174,2.80842882 48.0480957,3.24267578 C47.512774,3.67692274 47.2451172,4.23844057 47.2451172,4.92724609 C47.2451172,5.54866847 47.5352347,6.06526487 48.1154785,6.47705078 C48.6957223,6.88883669 49.6559178,7.27815572 50.9960938,7.64501953 C52.7555427,8.11670158 54.0919551,8.76806225 55.0053711,9.59912109 C55.9187871,10.4301799 56.3754883,11.4895769 56.3754883,12.7773438 C56.3754883,14.1399808 55.830816,15.2237102 54.7414551,16.0285645 C53.6520942,16.8334187 52.2202237,17.2358398 50.4458008,17.2358398 C48.738761,17.2358398 47.2413801,16.7847539 45.9536133,15.8825684 C44.6658464,14.9803829 44.0406899,13.7431719 44.078125,12.1708984 L44.1005859,12.1035156 L46.7285156,12.1035156 C46.7285156,13.0992888 47.0729132,13.8423641 47.7617188,14.3327637 C48.4505243,14.8231633 49.3452093,15.0683594 50.4458008,15.0683594 C51.456548,15.0683594 52.242673,14.8643412 52.8041992,14.4562988 C53.3657255,14.0482564 53.6464844,13.4960972 53.6464844,12.7998047 Z M81.9248047,2.83837891 L76.9833984,2.83837891 L76.9833984,17 L74.2543945,17 L74.2543945,2.83837891 L69.3129883,2.83837891 L69.3129883,0.6484375 L81.9248047,0.6484375 L81.9248047,2.83837891 Z M103.240234,13.1816406 L96.8388672,13.1816406 L95.5361328,17 L92.7734375,17 L98.7817383,0.6484375 L101.364746,0.6484375 L107.305664,17 L104.531738,17 L103.240234,13.1816406 Z M97.625,10.9018555 L102.465332,10.9018555 L100.095703,3.91650391 L100.02832,3.91650391 L97.625,10.9018555 Z M131.87793,2.83837891 L126.936523,2.83837891 L126.936523,17 L124.20752,17 L124.20752,2.83837891 L119.266113,2.83837891 L119.266113,0.6484375 L131.87793,0.6484375 L131.87793,2.83837891 Z M148.397949,17 L145.668945,17 L145.668945,0.6484375 L148.397949,0.6484375 L148.397949,17 Z M175.553223,11.5756836 L175.575684,11.6430664 C175.605632,13.2976971 175.068446,14.6434681 173.964111,15.6804199 C172.859776,16.7173717 171.364267,17.2358398 169.477539,17.2358398 C167.56835,17.2358398 166.016689,16.5938378 164.82251,15.3098145 C163.628331,14.0257911 163.03125,12.3842873 163.03125,10.3852539 L163.03125,7.27441406 C163.03125,5.28286765 163.620844,3.64136388 164.800049,2.34985352 C165.979254,1.05834315 167.512198,0.412597656 169.398926,0.412597656 C171.330576,0.412597656 172.852289,0.919835422 173.964111,1.93432617 C175.075933,2.94881692 175.616862,4.31330523 175.586914,6.02783203 L175.564453,6.09521484 L172.925293,6.09521484 C172.925293,4.9946234 172.627689,4.13737286 172.032471,3.5234375 C171.437253,2.90950214 170.559413,2.60253906 169.398926,2.60253906 C168.28336,2.60253906 167.398034,3.04426642 166.74292,3.92773438 C166.087806,4.81120233 165.760254,5.91926417 165.760254,7.25195312 L165.760254,10.3852539 C165.760254,11.7329169 166.095293,12.8484656 166.765381,13.7319336 C167.435469,14.6154016 168.339513,15.0571289 169.477539,15.0571289 C170.608079,15.0571289 171.465329,14.7539093 172.049316,14.1474609 C172.633304,13.5410126 172.925293,12.6837621 172.925293,11.5756836 L175.553223,11.5756836 Z" id="path-3"></path>
        <path d="M9.855,20.115 C9.2955,20.115 8.7435,20.016 8.2155,19.8225 L8.826,18.165 C9.1575,18.2865 9.5025,18.348 9.855,18.348 C10.245,18.348 10.626,18.273 10.986,18.126 L11.6565,19.761 C11.0835,19.9965 10.4775,20.115 9.855,20.115 Z M22.86,18.9405 L20.3715,17.523 L21.246,15.987 L23.736,17.4045 L22.86,18.9405 L22.86,18.9405 Z M13.1775,18.9105 L12.27,17.394 L14.7285,15.9225 L15.636,17.439 L13.1775,18.9105 Z M19.0545,16.7985 C18.69,16.647 18.3045,16.569 17.9085,16.569 C17.5635,16.569 17.223,16.629 16.8975,16.7475 L16.296,15.0855 C16.815,14.898 17.358,14.8035 17.9085,14.802 C18.5385,14.802 19.1535,14.925 19.734,15.168 L19.0545,16.7985 L19.0545,16.7985 Z M5.9535,16.554 C5.151,16.554 4.5,17.2035 4.5,18.006 C4.5,18.8085 5.151,19.458 5.9535,19.458 C6.756,19.458 7.407,18.807 7.407,18.006 C7.4055,17.2035 6.756,16.554 5.9535,16.554 L5.9535,16.554 Z M26.3175,6 L18,2.66453526e-15 L9.6825,6 L0,2.66453526e-15 L0,30 L9.6825,36 L18,30 L26.3175,36 L36,30 L36,0 L26.3175,6 L26.3175,6 Z M33,28.3305 L27,32.049 L27,25.5 L25.5,25.5 L25.5,31.7115 L19.5,27.384 L19.5,21 L16.5,21 L16.5,27.3825 L10.5,31.71 L10.5,24 L9,24 L9,32.0475 L3,28.329 L3,5.388 L9,9.1065 L9,13.5 L10.5,13.5 L10.5,9.1095 L16.5,4.7805 L16.5,10.5 L19.5,10.5 L19.5,4.7805 L25.5,9.1095 L25.5,12 L27,12 L27,9.1065 L33,5.388 L33,28.3305 Z M31.008,21.024 L29.064,19.113 L30.9735,17.1735 L29.9115,16.1205 L28.0035,18.063 L26.0625,16.155 L25.008,17.208 L26.952,19.122 L25.0425,21.066 L26.097,22.1205 L28.0125,20.1735 L29.955,22.086 L31.008,21.024 L31.008,21.024 Z" id="path-5"></path>
    </defs>
    <g id="Symbols" stroke="none" stroke-width="1" fill="none" fill-rule="evenodd">
        <g id="brand/logo/primary">
            <g id="Group-2" transform="translate(4.000000, 7.000000)">
                <mask id="mask-2" fill="white">
                    <use xlink:href="#path-1"></use>
                </mask>
                <use id="Starter" fill-opacity="0.5" fill="#FFFFFF" xlink:href="#path-1"></use>
                <mask id="mask-4" fill="white">
                    <use xlink:href="#path-3"></use>
                </mask>
                <use id="STATIC" fill="#FFFFFF" xlink:href="#path-3"></use>
                <mask id="mask-6" fill="white">
                    <use xlink:href="#path-5"></use>
                </mask>
                <use id="Map" fill="#4A90E2" fill-rule="nonzero" xlink:href="#path-5"></use>
            </g>
        </g>
    </g>
</svg>