<?xml version="1.0" encoding="UTF-8"?>
<svg width="512px" height="512px" viewBox="0 0 512 512" version="1.1" xmlns="http://www.w3.org/2000/svg" xmlns:xlink="http://www.w3.org/1999/xlink">
    <title>favicon</title>
    <defs>
        <linearGradient x1="18.2700844%" y1="18.2700844%" x2="100%" y2="100%" id="linearGradient-1">
            <stop stop-color="#4F46E5" offset="0%"></stop>
            <stop stop-color="#34D399" offset="100%"></stop>
        </linearGradient>
    </defs>
    <g id="favicon" stroke="none" stroke-width="1" fill="none" fill-rule="evenodd">
        <rect id="Rectangle" fill="url(#linearGradient-1)" x="0" y="0" width="512" height="512"></rect>
        <g id="logo" transform="translate(67.000000, 129.000000)" fill="#FFFFFF">
            <path d="M377.9685,95.25 C348.65775,161.2265 297.36,219.075 237.21075,253.984125 L237.21075,254 L140.805,254 C80.65575,219.090875 29.34225,161.2265 0.0315,95.25 L0,95.25 L0,0 L378,0 L378,95.25 L377.9685,95.25 L377.9685,95.25 Z M220.626,63.5 L157.374,63.5 C156.00375,103.076375 142.99425,133.429375 116.28225,158.33725 C134.505,183.467375 147.71925,211.566125 153.86175,238.125 L224.13825,238.125 C230.28075,211.566125 243.51075,183.467375 261.71775,158.33725 C235.00575,133.429375 221.99625,103.09225 220.626,63.5 Z M19.9395,100.504625 C36.1305,133.048375 71.86725,190.91275 136.12725,232.537 C120.44025,178.84775 74.8125,120.0785 19.9395,100.504625 Z M358.0605,100.504625 C303.20325,120.094375 257.5755,178.84775 241.8885,232.537 C306.1485,190.91275 341.8695,133.048375 358.0605,100.504625 Z M362.25,63.5 L236.376,63.5 C237.6675,98.07575 248.5665,124.079 271.4355,145.811875 C295.974,116.17325 327.55275,92.249625 362.25,82.55 L362.25,63.5 Z M15.75,63.5 L15.75,82.55 C50.44725,92.249625 82.04175,116.157375 106.5645,145.796 C129.4335,124.079 140.3325,98.07575 141.624,63.5 L15.75,63.5 Z M362.25,47.625 L362.25,15.875 L15.75,15.875 L15.75,47.625 L362.25,47.625 Z" id="Shape"></path>
        </g>
    </g>
</svg>