<?xml version="1.0" encoding="UTF-8"?>
<svg width="512px" height="512px" viewBox="0 0 512 512" version="1.1" xmlns="http://www.w3.org/2000/svg" xmlns:xlink="http://www.w3.org/1999/xlink">
    <title>favicon</title>
    <g id="favicon" stroke="none" stroke-width="1" fill="none" fill-rule="evenodd">
        <g id="Group" transform="translate(44.000000, -17.000000)">
            <path d="M119.329144,379.083073 L319.957425,379.255667 C344.309505,379.276616 364.045543,399.012642 364.066507,423.364723 L364.071167,428.778388 C364.092157,453.160136 344.34386,472.942464 319.962111,472.963453 C319.936784,472.963475 319.911456,472.963475 319.886129,472.963453 L119.257848,472.790859 C94.9057677,472.76991 75.1697296,453.033884 75.1487658,428.681803 L75.1441053,423.268138 C75.1231159,398.88639 94.871413,379.104062 119.253161,379.083073 C119.278489,379.083051 119.303817,379.083051 119.329144,379.083073 Z" id="Rectangle" fill="#E11D48" transform="translate(219.607636, 426.023263) rotate(-34.000000) translate(-219.607636, -426.023263) "></path>
            <path d="M177.654356,227.212525 L378.282637,227.385118 C402.634717,227.406068 422.370755,247.142094 422.391719,271.494174 L422.396379,276.90784 C422.417369,301.289588 402.669072,321.071915 378.287324,321.092905 C378.261996,321.092927 378.236668,321.092927 378.211341,321.092905 L177.58306,320.920311 C153.23098,320.899362 133.494942,301.163336 133.473978,276.811255 L133.469317,271.39759 C133.448328,247.015842 153.196625,227.233514 177.578373,227.212525 C177.603701,227.212503 177.629029,227.212503 177.654356,227.212525 Z" id="Rectangle" fill="#FBBF24" transform="translate(277.932848, 274.152715) rotate(-34.000000) translate(-277.932848, -274.152715) "></path>
            <path d="M45.7886593,204.431942 L246.41694,204.604536 C270.76902,204.625485 290.505058,224.361512 290.526022,248.713592 L290.530683,254.127257 C290.551672,278.509006 270.803375,298.291333 246.421627,298.312323 C246.396299,298.312344 246.370971,298.312344 246.345644,298.312323 L45.7173633,298.139729 C21.3652828,298.11878 1.62924478,278.382753 1.60828094,254.030673 L1.60362051,248.617008 C1.58263113,224.235259 21.3309282,204.452932 45.7126765,204.431942 C45.7380041,204.431921 45.7633317,204.431921 45.7886593,204.431942 Z" id="Rectangle" fill="#9333EA" transform="translate(146.067152, 251.372133) rotate(-34.000000) translate(-146.067152, -251.372133) "></path>
            <path d="M73.683326,72.8108007 L274.311606,72.9833943 C298.663687,73.0043436 318.399725,92.7403699 318.420689,117.09245 L318.425349,122.506116 C318.446339,146.887864 298.698042,166.670191 274.316293,166.691181 C274.290966,166.691203 274.265638,166.691203 274.24031,166.691181 L73.61203,166.518587 C49.2599495,166.497638 29.5239114,146.761612 29.5029476,122.409531 L29.4982872,116.995866 C29.4772978,92.6141176 49.2255948,72.8317901 73.6073431,72.8108007 C73.6326707,72.8107789 73.6579984,72.8107789 73.683326,72.8108007 Z" id="Rectangle" fill="#10B981" transform="translate(173.961818, 119.750991) rotate(-34.000000) translate(-173.961818, -119.750991) "></path>
        </g>
    </g>
</svg>